<?xml version="1.0" encoding="UTF-8" standalone="no"?>
<!-- Created with Inkscape (http://www.inkscape.org/) -->

<svg
   xmlns:dc="http://purl.org/dc/elements/1.1/"
   xmlns:cc="http://creativecommons.org/ns#"
   xmlns:rdf="http://www.w3.org/1999/02/22-rdf-syntax-ns#"
   xmlns:svg="http://www.w3.org/2000/svg"
   xmlns="http://www.w3.org/2000/svg"
   xmlns:sodipodi="http://sodipodi.sourceforge.net/DTD/sodipodi-0.dtd"
   xmlns:inkscape="http://www.inkscape.org/namespaces/inkscape"
   width="225.81181mm"
   height="74.668907mm"
   viewBox="0 0 800.1206 264.57487"
   id="svg5157"
   version="1.1"
   inkscape:version="0.91 r13725"
   sodipodi:docname="nodexo.svg">
  <defs
     id="defs5159">
    <clipPath
       clipPathUnits="userSpaceOnUse"
       id="clipPath4932">
      <rect
         style="opacity:1;fill:#ffffff;fill-opacity:1;stroke:none;stroke-width:0.5;stroke-miterlimit:4;stroke-dasharray:none"
         id="rect4934"
         width="2.1278837"
         height="2.7648561"
         x="726.7312"
         y="1207.8083" />
    </clipPath>
    <clipPath
       clipPathUnits="userSpaceOnUse"
       id="clipPath4932-1">
      <rect
         style="opacity:1;fill:#ffffff;fill-opacity:1;stroke:none;stroke-width:0.5;stroke-miterlimit:4;stroke-dasharray:none"
         id="rect4934-9"
         width="2.1278837"
         height="2.7648561"
         x="726.7312"
         y="1207.8083" />
    </clipPath>
  </defs>
  <sodipodi:namedview
     id="base"
     pagecolor="#ffffff"
     bordercolor="#666666"
     borderopacity="1.0"
     inkscape:pageopacity="0.0"
     inkscape:pageshadow="2"
     inkscape:zoom="1.4"
     inkscape:cx="302.62958"
     inkscape:cy="170.80757"
     inkscape:document-units="px"
     inkscape:current-layer="layer1"
     showgrid="false"
     fit-margin-top="0"
     fit-margin-left="0"
     fit-margin-right="0"
     fit-margin-bottom="0"
     inkscape:window-width="2560"
     inkscape:window-height="1377"
     inkscape:window-x="-8"
     inkscape:window-y="-8"
     inkscape:window-maximized="1" />
  <metadata
     id="metadata5162">
    <rdf:RDF>
      <cc:Work
         rdf:about="">
        <dc:format>image/svg+xml</dc:format>
        <dc:type
           rdf:resource="http://purl.org/dc/dcmitype/StillImage" />
        <dc:title></dc:title>
      </cc:Work>
    </rdf:RDF>
  </metadata>
  <g
     inkscape:label="Ebene 1"
     inkscape:groupmode="layer"
     id="layer1"
     transform="translate(45.77454,-294.36018)">
    <g
       id="g5991"
       transform="matrix(5.6789293,0,0,5.6789293,-1657.6778,-1996.2543)">
      <path
         id="rect5404-2-4-3-7-5"
         d="m 283.83929,438.8013 140.89286,0 0,0.17857 -140.89286,0 z"
         style="opacity:0.15;fill:#ffffff;fill-opacity:1;stroke:none"
         inkscape:connector-curvature="0" />
      <path
         id="path4147-37-8-97-1-9"
         d="m 357.4375,403.35352 c -1.04654,0 -1.89062,0.84207 -1.89062,1.88867 l 0,2.125 a 2.1863182,2.1863182 0 0 1 0.0156,0.24414 2.1863182,2.1863182 0 0 1 -2.13086,2.18555 c -0.0805,0.0141 -0.16143,0.0234 -0.24609,0.0234 l -1.9043,0 c -0.7849,0 -1.41797,-0.63111 -1.41797,-1.41601 l 0,-0.76758 a 2.1863182,2.1863182 0 0 0 -0.0117,0 l 0,-0.72266 c 0,-0.7849 -0.6311,-1.41797 -1.41601,-1.41797 l -1.9043,0 c -0.7849,0 -1.41602,0.63307 -1.41602,1.41797 l 0,1.27539 a 2.1863182,2.1863182 0 0 0 -0.0137,-0.002 2.1863182,2.1863182 0 0 1 -2.1875,2.17383 2.1863182,2.1863182 0 0 1 -0.32422,-0.0254 2.1863182,2.1863182 0 0 0 0,0.0117 l -2.35351,0 c -1.04654,0 -1.88867,0.84207 -1.88867,1.88867 l 0,2.53711 c 0,1.0466 0.84213,1.89062 1.88867,1.89062 l 2.53711,0 c 1.04654,0 1.89062,-0.84402 1.89062,-1.89062 l 0,-2.12305 a 2.1863182,2.1863182 0 0 1 -0.0156,-0.24609 2.1863182,2.1863182 0 0 1 2.03125,-2.17969 c 0.12577,-0.0364 0.25869,-0.0625 0.39648,-0.0625 l 1.90235,0 c 0.78491,0 1.41796,0.63307 1.41796,1.41797 l 0,1.83594 c 0.14146,0.63333 0.70149,1.10351 1.37891,1.10351 l 1.9043,0 c 0.78491,0 1.41601,-0.63111 1.41601,-1.41601 l 0,-1.2754 a 2.1863182,2.1863182 0 0 0 0.0137,0.002 2.1863182,2.1863182 0 0 1 2.18554,-2.17578 2.1863182,2.1863182 0 0 1 0.32617,0.0254 2.1863182,2.1863182 0 0 0 0,-0.01 l 2.35352,0 c 1.04654,0 1.88867,-0.84217 1.88867,-1.88867 l 0,-2.53906 c 0,-1.0466 -0.84213,-1.88867 -1.88867,-1.88867 l -2.53711,0 z"
         style="fill:#50b948;fill-opacity:1;stroke:none"
         inkscape:connector-curvature="0" />
      <g
         transform="translate(-483.56357,-717.19944)"
         id="g4977">
        <g
           id="text4878"
           style="font-style:normal;font-weight:normal;font-size:25.41365242px;line-height:125%;font-family:sans-serif;letter-spacing:0px;word-spacing:0px;fill:#ffffff;fill-opacity:1;stroke:#030810;stroke-width:0.50310057;stroke-linecap:butt;stroke-linejoin:miter;stroke-miterlimit:4;stroke-dasharray:none;stroke-opacity:1"
           transform="scale(1.0681241,0.93622081)">
          <path
             id="path5849"
             style="font-style:normal;font-variant:normal;font-weight:normal;font-stretch:normal;font-family:'Neuropol X';-inkscape-font-specification:'Neuropol X';fill:#ffffff;fill-opacity:1;stroke:#030810;stroke-width:0.50310057;stroke-miterlimit:4;stroke-dasharray:none"
             d="m 742.97339,1230.7626 q 0,1.0673 -1.21986,1.0673 -1.21985,0 -1.21985,-1.0673 l 0,-8.6661 q 0,-1.6265 -3.27837,-1.6265 l -6.02303,0 q -3.30378,0 -3.30378,1.6265 l 0,8.6661 q 0,1.0673 -1.19444,1.0673 -1.19444,0 -1.19444,-1.0673 l 0,-8.6661 q 0,-3.6087 6.35341,-3.6087 l 4.6507,0 q 6.42966,0 6.42966,3.6087 l 0,8.6661 z"
             inkscape:connector-curvature="0" />
          <path
             id="path5851"
             style="font-style:normal;font-variant:normal;font-weight:normal;font-stretch:normal;font-family:'Neuropol X';-inkscape-font-specification:'Neuropol X';fill:#ffffff;fill-opacity:1;stroke:#030810;stroke-width:0.50310057;stroke-miterlimit:4;stroke-dasharray:none"
             d="m 761.02979,1222.3761 q 0,-1.9061 -3.40543,-1.9061 l -5.48935,0 q -3.68498,0 -3.68498,2.1094 l 0,5.1081 q 0,2.0077 3.68498,2.0077 l 5.48935,0 q 3.40543,0 3.40543,-2.0077 l 0,-5.3114 z m 2.43971,5.3114 q 0,4.0154 -6.22635,4.0154 l -4.82859,0 q -6.35342,0 -6.35342,-4.0154 l 0,-5.1081 q 0,-4.0916 6.42966,-4.0916 l 4.75235,0 q 6.22635,0 6.22635,4.0662 l 0,5.1335 z"
             inkscape:connector-curvature="0" />
          <path
             id="path5853"
             style="font-style:normal;font-variant:normal;font-weight:normal;font-stretch:normal;font-family:'Neuropol X';-inkscape-font-specification:'Neuropol X';fill:#ffffff;fill-opacity:1;stroke:#030810;stroke-width:0.50310057;stroke-miterlimit:4;stroke-dasharray:none"
             d="m 781.91306,1220.4955 -9.37764,0 q -3.68498,0 -3.68498,2.338 l 0,4.727 q 0,2.1347 3.5325,2.1347 l 5.54017,0 q 3.98995,0 3.98995,-2.1347 l 0,-7.065 z m 2.36347,7.3445 q 0,3.8629 -6.73462,3.8629 l -4.49822,0 q -6.58213,0 -6.58213,-3.6342 l 0,-5.5401 q 0,-4.0408 6.58213,-4.0408 l 8.86937,0 0,-3.1259 q 0,-1.0674 1.14361,-1.0674 1.21986,0 1.21986,1.0674 l 0,12.4781 z"
             inkscape:connector-curvature="0" />
          <path
             id="path5855"
             style="font-style:normal;font-variant:normal;font-weight:normal;font-stretch:normal;font-family:'Neuropol X';-inkscape-font-specification:'Neuropol X';fill:#ffffff;fill-opacity:1;stroke:#030810;stroke-width:0.50310057;stroke-miterlimit:4;stroke-dasharray:none"
             d="m 789.74721,1224.2059 12.91014,0 0,-1.9569 q 0,-1.779 -2.77009,-1.779 l -6.45507,0 q -3.68498,0 -3.68498,1.9061 l 0,1.8298 z m 15.2482,0.9657 q 0,1.0928 -1.09279,1.0928 l -14.15541,0 0,1.6518 q 0,1.779 3.68498,1.779 l 2.64302,0 q 1.01655,0 1.01655,0.9911 0,1.0166 -1.01655,1.0166 l -2.00768,0 q -6.7092,0 -6.7092,-4.0916 l 0,-5.0827 q 0,-4.0408 6.63296,-4.0408 l 5.41311,0 q 5.59101,0 5.59101,3.5325 l 0,3.1513 z"
             inkscape:connector-curvature="0" />
          <path
             id="path5857"
             style="font-style:normal;font-variant:normal;font-weight:normal;font-stretch:normal;font-family:'Neuropol X';-inkscape-font-specification:'Neuropol X';fill:#ffffff;fill-opacity:1;stroke:#030810;stroke-width:0.50310057;stroke-miterlimit:4;stroke-dasharray:none"
             d="m 815.53532,1223.723 6.63296,-5.0573 q 0.33038,-0.305 0.76241,-0.305 0.50828,0 0.83865,0.3812 0.33038,0.3558 0.33038,0.8133 -0.0254,0.2033 -0.12707,0.4066 -0.10165,0.2033 -0.35579,0.4066 l -6.22634,4.7269 6.22634,4.8032 q 0.38121,0.305 0.38121,0.7116 0,0.4829 -0.33038,0.8895 -0.30496,0.3812 -0.737,0.3812 -0.27955,0 -0.60992,-0.2796 l -6.78545,-5.0827 -6.73462,5.0827 q -0.25413,0.2542 -0.60992,0.2542 -0.43204,0 -0.76241,-0.3812 -0.30497,-0.4067 -0.30497,-0.8641 0,-0.4066 0.38121,-0.7116 l 6.20093,-4.8032 -6.20093,-4.7269 q -0.48286,-0.3304 -0.48286,-0.8132 0,-0.5083 0.33038,-0.8133 0.35579,-0.3304 0.81323,-0.3304 0.15248,0 0.38121,0.051 0.22872,0.051 0.3812,0.2033 l 6.60755,5.0573 z"
             inkscape:connector-curvature="0" />
          <path
             id="path5859"
             style="font-style:normal;font-variant:normal;font-weight:normal;font-stretch:normal;font-family:'Neuropol X';-inkscape-font-specification:'Neuropol X';fill:#ffffff;fill-opacity:1;stroke:#030810;stroke-width:0.50310057;stroke-miterlimit:4;stroke-dasharray:none"
             d="m 840.84453,1222.3761 q 0,-1.9061 -3.40542,-1.9061 l -5.48935,0 q -3.68498,0 -3.68498,2.1094 l 0,5.1081 q 0,2.0077 3.68498,2.0077 l 5.48935,0 q 3.40542,0 3.40542,-2.0077 l 0,-5.3114 z m 2.43972,5.3114 q 0,4.0154 -6.22635,4.0154 l -4.82859,0 q -6.35342,0 -6.35342,-4.0154 l 0,-5.1081 q 0,-4.0916 6.42966,-4.0916 l 4.75235,0 q 6.22635,0 6.22635,4.0662 l 0,5.1335 z"
             inkscape:connector-curvature="0" />
        </g>
        <g
           id="text4878-0"
           style="font-style:normal;font-weight:normal;font-size:25.41365242px;line-height:125%;font-family:sans-serif;letter-spacing:0px;word-spacing:0px;fill:#ffffff;fill-opacity:1;stroke:#030810;stroke-width:0.50310057;stroke-linecap:butt;stroke-linejoin:miter;stroke-miterlimit:4;stroke-dasharray:none;stroke-opacity:1"
           clip-path="url(#clipPath4932)"
           transform="matrix(1.0681241,0,0,0.93622081,56.30589,9.6209682)">
          <path
             id="path5862"
             style="font-style:normal;font-variant:normal;font-weight:normal;font-stretch:normal;font-family:'Neuropol X';-inkscape-font-specification:'Neuropol X';fill:#ffffff;fill-opacity:1;stroke:#030810;stroke-width:0.50310057;stroke-miterlimit:4;stroke-dasharray:none"
             d="m 720.65788,1202.7225 12.91014,0 0,-1.9569 q 0,-1.779 -2.77009,-1.779 l -6.45507,0 q -3.68498,0 -3.68498,1.9061 l 0,1.8298 z m 15.24819,0.9657 q 0,1.0928 -1.09278,1.0928 l -14.15541,0 0,1.6518 q 0,1.779 3.68498,1.779 l 2.64302,0 q 1.01655,0 1.01655,0.9911 0,1.0166 -1.01655,1.0166 l -2.00768,0 q -6.7092,0 -6.7092,-4.0916 l 0,-5.0827 q 0,-4.0408 6.63296,-4.0408 l 5.41311,0 q 5.591,0 5.591,3.5325 l 0,3.1513 z"
             inkscape:connector-curvature="0" />
        </g>
        <path
           id="rect4936"
           d="m 833.63837,1140.5542 1.80803,0 0,2.2321 -1.80803,0 z"
           style="opacity:1;fill:#030810;fill-opacity:1;stroke:none;stroke-width:0.5;stroke-miterlimit:4;stroke-dasharray:none"
           inkscape:connector-curvature="0" />
        <g
           id="text4878-0-6"
           style="font-style:normal;font-weight:normal;font-size:25.41365242px;line-height:125%;font-family:sans-serif;letter-spacing:0px;word-spacing:0px;fill:#ffffff;fill-opacity:1;stroke:#030810;stroke-width:0.50310057;stroke-linecap:butt;stroke-linejoin:miter;stroke-miterlimit:4;stroke-dasharray:none;stroke-opacity:1"
           clip-path="url(#clipPath4932-1)"
           transform="matrix(-1.1856116,0,0,0.96829862,1707.9238,-23.791198)">
          <path
             id="path5866"
             style="font-style:normal;font-variant:normal;font-weight:normal;font-stretch:normal;font-family:'Neuropol X';-inkscape-font-specification:'Neuropol X';fill:#ffffff;fill-opacity:1;stroke:#030810;stroke-width:0.50310057;stroke-miterlimit:4;stroke-dasharray:none"
             d="m 720.65788,1202.7225 12.91014,0 0,-1.9569 q 0,-1.779 -2.77009,-1.779 l -6.45507,0 q -3.68498,0 -3.68498,1.9061 l 0,1.8298 z m 15.24819,0.9657 q 0,1.0928 -1.09278,1.0928 l -14.15541,0 0,1.6518 q 0,1.779 3.68498,1.779 l 2.64302,0 q 1.01655,0 1.01655,0.9911 0,1.0166 -1.01655,1.0166 l -2.00768,0 q -6.7092,0 -6.7092,-4.0916 l 0,-5.0827 q 0,-4.0408 6.63296,-4.0408 l 5.41311,0 q 5.591,0 5.591,3.5325 l 0,3.1513 z"
             inkscape:connector-curvature="0" />
        </g>
        <path
           id="rect4936-5"
           d="m 843.27802,1145.9641 1.80803,0 0,2.2322 -1.80803,0 z"
           style="opacity:1;fill:#030810;fill-opacity:1;stroke:none;stroke-width:0.5;stroke-miterlimit:4;stroke-dasharray:none"
           inkscape:connector-curvature="0" />
      </g>
      <g
         id="text4576-8-3-0-4-7-6-1-9-9-5"
         style="font-style:normal;font-variant:normal;font-weight:normal;font-stretch:normal;font-size:7.53533268px;line-height:125%;font-family:Lato;-inkscape-font-specification:Lato;letter-spacing:0px;word-spacing:0px;opacity:1;fill:#c87137;fill-opacity:1;stroke:#b3b3b3;stroke-width:0.18702997;stroke-miterlimit:4;stroke-dasharray:none">
        <path
           id="path5870"
           style="font-style:normal;font-variant:normal;font-weight:300;font-stretch:normal;font-family:Lato;-inkscape-font-specification:'Lato Light';letter-spacing:0.46757489px;fill:#c87137;fill-opacity:1;stroke:#b3b3b3;stroke-width:0.18702997;stroke-miterlimit:4;stroke-dasharray:none"
           d="m 318.42681,446.69882 q 0,-0.1281 -0.049,-0.23736 -0.049,-0.10926 -0.13564,-0.18838 -0.0867,-0.0791 -0.20722,-0.12434 -0.1168,-0.0452 -0.2562,-0.0452 l 0,-0.0753 q 0.1394,0 0.2562,-0.0414 0.12057,-0.0452 0.20722,-0.12433 0.0867,-0.0791 0.13564,-0.18838 0.049,-0.10927 0.049,-0.24113 0,-0.21853 -0.0414,-0.42575 -0.0377,-0.20722 -0.0866,-0.41068 -0.049,-0.20345 -0.0904,-0.41067 -0.0377,-0.21099 -0.0377,-0.43328 0,-0.20346 0.0641,-0.38054 0.0678,-0.17708 0.18461,-0.30895 0.12057,-0.13186 0.28635,-0.20722 0.16954,-0.0754 0.36923,-0.0754 l 0.21099,0 0,0.0301 q 0,0.0377 -0.0452,0.0377 l -0.16577,0 q -0.17708,0 -0.32779,0.0641 -0.14694,0.064 -0.25997,0.18461 -0.10926,0.1168 -0.17331,0.28258 -0.0603,0.16578 -0.0603,0.373 0,0.21475 0.0377,0.42574 0.0414,0.20722 0.0904,0.41821 0.049,0.20723 0.0867,0.41821 0.0414,0.20723 0.0414,0.41822 0,0.14317 -0.0528,0.2562 -0.049,0.10926 -0.1281,0.18838 -0.0791,0.0791 -0.17708,0.1281 -0.098,0.0452 -0.19215,0.0603 0.0942,0.0188 0.19215,0.0678 0.098,0.0452 0.17708,0.12433 0.0791,0.0791 0.1281,0.18839 0.0528,0.10926 0.0528,0.25243 0,0.21099 -0.0414,0.42198 -0.0377,0.20722 -0.0867,0.41821 -0.049,0.20722 -0.0904,0.41821 -0.0377,0.20722 -0.0377,0.42198 0,0.20722 0.0603,0.373 0.0641,0.16578 0.17331,0.28257 0.11303,0.12057 0.25997,0.18462 0.15071,0.0641 0.32779,0.0641 l 0.16577,0 q 0.0452,0 0.0452,0.0377 l 0,0.0301 -0.21099,0 q -0.19969,0 -0.36923,-0.0754 -0.16578,-0.0754 -0.28635,-0.20723 -0.1168,-0.13186 -0.18461,-0.30894 -0.0641,-0.17709 -0.0641,-0.38054 0,-0.22229 0.0377,-0.42951 0.0414,-0.21099 0.0904,-0.41445 0.049,-0.20345 0.0866,-0.4069 0.0414,-0.20723 0.0414,-0.42952 z"
           inkscape:connector-curvature="0" />
        <path
           id="path5872"
           style="font-style:normal;font-variant:normal;font-weight:300;font-stretch:normal;font-family:Lato;-inkscape-font-specification:'Lato Light';letter-spacing:0.46757489px;fill:#c87137;fill-opacity:1;stroke:#b3b3b3;stroke-width:0.18702997;stroke-miterlimit:4;stroke-dasharray:none"
           d="m 322.12716,444.68689 q 0.29011,0 0.54254,0.10549 0.25244,0.10173 0.43705,0.30518 0.18838,0.20346 0.29388,0.5011 0.10549,0.29388 0.10549,0.67818 0,0.0188 -0.0151,0.0301 -0.0113,0.008 -0.0301,0.008 l -2.84835,0 q -0.008,0.0528 -0.008,0.10173 0,0.049 0,0.10172 0,0.45966 0.10926,0.81382 0.10927,0.35039 0.30895,0.59152 0.20346,0.23737 0.48603,0.3617 0.28634,0.12433 0.63297,0.12433 0.31272,0 0.53501,-0.0678 0.22606,-0.0678 0.373,-0.1507 0.1507,-0.0829 0.22606,-0.15071 0.0791,-0.0678 0.10172,-0.0678 0.0151,0 0.0301,0.0151 l 0.0151,0.0151 q -0.0641,0.0791 -0.19216,0.16578 -0.12433,0.0829 -0.29764,0.15448 -0.16955,0.0716 -0.373,0.11679 -0.20345,0.0452 -0.41821,0.0452 -0.38054,0 -0.68195,-0.13187 -0.30141,-0.13564 -0.5124,-0.38807 -0.20722,-0.25244 -0.32025,-0.6179 -0.11303,-0.36546 -0.11303,-0.82889 0,-0.4069 0.10926,-0.74223 0.10926,-0.33909 0.31648,-0.58022 0.20722,-0.24113 0.50487,-0.373 0.30141,-0.13563 0.68195,-0.13563 z m 0,0.0754 q -0.33156,0 -0.59906,0.10926 -0.26374,0.1055 -0.45589,0.30142 -0.19215,0.19215 -0.30895,0.46719 -0.11303,0.27504 -0.14694,0.60659 l 2.80692,0 q 0,-0.35793 -0.098,-0.63297 -0.098,-0.2788 -0.27504,-0.46719 -0.17332,-0.18838 -0.41068,-0.28634 -0.23736,-0.098 -0.5124,-0.098 z"
           inkscape:connector-curvature="0" />
        <path
           id="path5874"
           style="font-style:normal;font-variant:normal;font-weight:300;font-stretch:normal;font-family:Lato;-inkscape-font-specification:'Lato Light';letter-spacing:0.46757489px;fill:#c87137;fill-opacity:1;stroke:#b3b3b3;stroke-width:0.18702997;stroke-miterlimit:4;stroke-dasharray:none"
           d="m 325.03618,448.43948 0,-3.69231 0.0226,0 q 0.0527,0 0.0527,0.0603 l 0.0113,0.69702 q 0.21475,-0.373 0.5237,-0.59529 0.30895,-0.22229 0.67065,-0.22229 0.44458,0 0.69325,0.27504 0.25243,0.27504 0.31271,0.78367 0.0452,-0.2675 0.15448,-0.46719 0.11303,-0.19968 0.27127,-0.33155 0.15824,-0.13187 0.35039,-0.19592 0.19592,-0.0641 0.40314,-0.0641 0.25997,0 0.47096,0.0904 0.21099,0.0904 0.35793,0.26751 0.14694,0.17331 0.22606,0.43328 0.0829,0.25997 0.0829,0.59529 l 0,2.36609 -0.0904,0 0,-2.36609 q 0,-0.63674 -0.27504,-0.97206 -0.27128,-0.33909 -0.77238,-0.33909 -0.22229,0 -0.42951,0.0829 -0.20345,0.0829 -0.3617,0.24867 -0.15824,0.16201 -0.25243,0.4069 -0.0942,0.2449 -0.0942,0.57269 l 0,2.36609 -0.0904,0 0,-2.36609 q 0,-0.30895 -0.0641,-0.55008 -0.0603,-0.2449 -0.18461,-0.41444 -0.12057,-0.16955 -0.30141,-0.2562 -0.18085,-0.0904 -0.41445,-0.0904 -0.35793,0 -0.65934,0.22983 -0.29765,0.22606 -0.52371,0.6292 l 0,2.81821 -0.0904,0 z"
           inkscape:connector-curvature="0" />
        <path
           id="path5876"
           style="font-style:normal;font-variant:normal;font-weight:300;font-stretch:normal;font-family:Lato;-inkscape-font-specification:'Lato Light';letter-spacing:0.46757489px;fill:#c87137;fill-opacity:1;stroke:#b3b3b3;stroke-width:0.18702997;stroke-miterlimit:4;stroke-dasharray:none"
           d="m 331.38461,448.43948 0,-5.42544 0.0904,0 0,2.4942 q 0.24866,-0.37677 0.59906,-0.59906 0.35416,-0.22229 0.77237,-0.22229 0.71585,0 1.09639,0.46342 0.38053,0.45966 0.38053,1.42041 0,0.40314 -0.10549,0.75353 -0.10173,0.34663 -0.30518,0.6066 -0.20346,0.2562 -0.50864,0.40691 -0.30141,0.14694 -0.70078,0.14694 -0.41068,0 -0.71586,-0.16201 -0.30518,-0.16201 -0.51617,-0.5011 l -0.0113,0.56515 q 0,0.0188 -0.008,0.0377 -0.008,0.0151 -0.0377,0.0151 l -0.0301,0 z m 1.46186,-3.67724 q -0.41068,0 -0.76484,0.22983 -0.35039,0.22983 -0.60659,0.63673 l 0,2.07599 q 0.24113,0.38807 0.53877,0.54631 0.29765,0.15824 0.68949,0.15824 0.38806,0 0.67441,-0.1394 0.28634,-0.14317 0.47472,-0.39184 0.19215,-0.24866 0.28635,-0.58399 0.0942,-0.33532 0.0942,-0.72339 0,-0.91931 -0.35416,-1.36389 -0.3504,-0.44459 -1.03234,-0.44459 z"
           inkscape:connector-curvature="0" />
        <path
           id="path5878"
           style="font-style:normal;font-variant:normal;font-weight:300;font-stretch:normal;font-family:Lato;-inkscape-font-specification:'Lato Light';letter-spacing:0.46757489px;fill:#c87137;fill-opacity:1;stroke:#b3b3b3;stroke-width:0.18702997;stroke-miterlimit:4;stroke-dasharray:none"
           d="m 335.83202,448.43948 0,-3.69231 0.0226,0 q 0.0527,0 0.0527,0.0603 l 0.0113,1.02481 q 0.0791,-0.27504 0.19592,-0.48603 0.11679,-0.21476 0.27503,-0.3617 0.15825,-0.14694 0.35793,-0.22229 0.20346,-0.0754 0.45589,-0.0754 0.18085,0 0.33532,0.0377 0.15448,0.0377 0.29765,0.1055 l -0.0151,0.0301 q -0.008,0.0113 -0.0151,0.0226 -0.004,0.008 -0.0226,0.008 -0.0188,0 -0.064,-0.0188 -0.0414,-0.0188 -0.11303,-0.0414 -0.0678,-0.0226 -0.16954,-0.0414 -0.098,-0.0188 -0.2336,-0.0188 -0.49356,0 -0.79874,0.32402 -0.30519,0.32402 -0.48227,0.91931 l 0,2.42637 -0.0904,0 z"
           inkscape:connector-curvature="0" />
        <path
           id="path5880"
           style="font-style:normal;font-variant:normal;font-weight:300;font-stretch:normal;font-family:Lato;-inkscape-font-specification:'Lato Light';letter-spacing:0.46757489px;fill:#c87137;fill-opacity:1;stroke:#b3b3b3;stroke-width:0.18702997;stroke-miterlimit:4;stroke-dasharray:none"
           d="m 341.32778,448.43948 q -0.0528,0 -0.0528,-0.0603 l -0.0226,-0.59906 q -0.15824,0.16578 -0.31649,0.30142 -0.15824,0.13186 -0.33532,0.22606 -0.17708,0.0904 -0.38053,0.1394 -0.20346,0.0528 -0.45212,0.0528 -0.16578,0 -0.33533,-0.0528 -0.16577,-0.049 -0.30141,-0.15824 -0.13564,-0.11303 -0.22229,-0.28635 -0.0829,-0.17708 -0.0829,-0.42951 0,-0.24867 0.14317,-0.44458 0.14694,-0.19969 0.44459,-0.33909 0.30141,-0.13941 0.7573,-0.21853 0.45588,-0.0829 1.08132,-0.098 l 0,-0.47472 q 0,-0.29011 -0.0641,-0.51994 -0.0641,-0.22983 -0.18839,-0.38807 -0.12433,-0.15824 -0.31271,-0.24113 -0.18839,-0.0867 -0.43705,-0.0867 -0.19592,0 -0.35416,0.0414 -0.15824,0.0414 -0.28258,0.10172 -0.12433,0.0603 -0.21852,0.13187 -0.0904,0.0716 -0.15824,0.13187 -0.0678,0.0603 -0.10927,0.10173 -0.0414,0.0414 -0.0603,0.0414 -0.0151,0 -0.0377,-0.0226 l -0.0151,-0.0151 q 0.27128,-0.28634 0.56139,-0.43705 0.29011,-0.1507 0.67441,-0.1507 0.28257,0 0.48603,0.0904 0.20722,0.0904 0.34285,0.25997 0.13564,0.16955 0.19969,0.41444 0.0641,0.24113 0.0641,0.54632 l 0,2.44144 -0.0151,0 z m -1.55981,-0.0151 q 0.25997,0 0.47095,-0.0603 0.21099,-0.0603 0.38807,-0.16201 0.17708,-0.10173 0.32779,-0.23359 0.15448,-0.13564 0.29765,-0.28258 l 0,-1.13783 q -1.18682,0.0377 -1.76327,0.29764 -0.57269,0.2562 -0.57269,0.72716 0,0.22229 0.0716,0.3843 0.0753,0.15824 0.19215,0.26374 0.12057,0.10173 0.27127,0.15447 0.15448,0.049 0.31649,0.049 z"
           inkscape:connector-curvature="0" />
        <path
           id="path5882"
           style="font-style:normal;font-variant:normal;font-weight:300;font-stretch:normal;font-family:Lato;-inkscape-font-specification:'Lato Light';letter-spacing:0.46757489px;fill:#c87137;fill-opacity:1;stroke:#b3b3b3;stroke-width:0.18702997;stroke-miterlimit:4;stroke-dasharray:none"
           d="m 345.38783,445.0938 q -0.0151,0.0151 -0.0301,0.0151 -0.0226,0 -0.0867,-0.0528 -0.0603,-0.0565 -0.18085,-0.12057 -0.1168,-0.064 -0.29764,-0.11679 -0.17709,-0.0565 -0.42952,-0.0565 -0.35793,0 -0.6405,0.1281 -0.28258,0.1281 -0.4785,0.36547 -0.19591,0.23736 -0.30141,0.57645 -0.10173,0.33909 -0.10173,0.76107 0,0.43705 0.10173,0.77614 0.1055,0.33532 0.29765,0.56891 0.19215,0.22983 0.45965,0.3504 0.27127,0.12056 0.60283,0.12056 0.29388,0 0.49733,-0.0678 0.20345,-0.0678 0.33532,-0.1507 0.13187,-0.0829 0.19969,-0.15071 0.0678,-0.0678 0.0904,-0.0678 0.0151,0 0.0301,0.0151 l 0.0151,0.0151 q -0.0565,0.0829 -0.16578,0.16955 -0.10926,0.0829 -0.25997,0.15447 -0.15071,0.0678 -0.33909,0.11303 -0.18838,0.0452 -0.40314,0.0452 -0.35793,0 -0.64427,-0.12811 -0.28634,-0.1281 -0.4898,-0.36923 -0.19969,-0.24489 -0.30895,-0.59529 -0.10926,-0.35039 -0.10926,-0.79874 0,-0.42952 0.10926,-0.77991 0.10926,-0.35416 0.31649,-0.60283 0.20722,-0.24866 0.50486,-0.3843 0.30142,-0.1394 0.68195,-0.1394 0.33532,0 0.59529,0.10926 0.26374,0.10549 0.45212,0.27504 l -0.0226,0.0226 z"
           inkscape:connector-curvature="0" />
        <path
           id="path5884"
           style="font-style:normal;font-variant:normal;font-weight:300;font-stretch:normal;font-family:Lato;-inkscape-font-specification:'Lato Light';letter-spacing:0.46757489px;fill:#c87137;fill-opacity:1;stroke:#b3b3b3;stroke-width:0.18702997;stroke-miterlimit:4;stroke-dasharray:none"
           d="m 348.18617,444.68689 q 0.29011,0 0.54255,0.10549 0.25243,0.10173 0.43705,0.30518 0.18838,0.20346 0.29388,0.5011 0.10549,0.29388 0.10549,0.67818 0,0.0188 -0.0151,0.0301 -0.0113,0.008 -0.0301,0.008 l -2.84836,0 q -0.008,0.0528 -0.008,0.10173 0,0.049 0,0.10172 0,0.45966 0.10926,0.81382 0.10926,0.35039 0.30895,0.59152 0.20345,0.23737 0.48603,0.3617 0.28634,0.12433 0.63296,0.12433 0.31272,0 0.53501,-0.0678 0.22606,-0.0678 0.373,-0.1507 0.15071,-0.0829 0.22606,-0.15071 0.0791,-0.0678 0.10173,-0.0678 0.0151,0 0.0301,0.0151 l 0.0151,0.0151 q -0.0641,0.0791 -0.19215,0.16578 -0.12433,0.0829 -0.29765,0.15448 -0.16954,0.0716 -0.37299,0.11679 -0.20346,0.0452 -0.41822,0.0452 -0.38053,0 -0.68194,-0.13187 -0.30142,-0.13564 -0.51241,-0.38807 -0.20722,-0.25244 -0.32025,-0.6179 -0.11303,-0.36546 -0.11303,-0.82889 0,-0.4069 0.10926,-0.74223 0.10927,-0.33909 0.31649,-0.58022 0.20722,-0.24113 0.50487,-0.373 0.30141,-0.13563 0.68194,-0.13563 z m 0,0.0754 q -0.33155,0 -0.59906,0.10926 -0.26373,0.1055 -0.45588,0.30142 -0.19215,0.19215 -0.30895,0.46719 -0.11303,0.27504 -0.14694,0.60659 l 2.80691,0 q 0,-0.35793 -0.098,-0.63297 -0.098,-0.2788 -0.27504,-0.46719 -0.17331,-0.18838 -0.41067,-0.28634 -0.23737,-0.098 -0.51241,-0.098 z"
           inkscape:connector-curvature="0" />
        <path
           id="path5886"
           style="font-style:normal;font-variant:normal;font-weight:300;font-stretch:normal;font-family:Lato;-inkscape-font-specification:'Lato Light';letter-spacing:0.46757489px;fill:#c87137;fill-opacity:1;stroke:#b3b3b3;stroke-width:0.18702997;stroke-miterlimit:4;stroke-dasharray:none"
           d="m 355.16293,444.74717 0,4.34035 q 0,0.16578 -0.0528,0.30518 -0.0528,0.13941 -0.15071,0.24113 -0.0942,0.10173 -0.22983,0.15825 -0.13563,0.0565 -0.30518,0.0565 -0.10172,0 -0.17331,-0.0226 -0.0754,-0.0188 -0.14317,-0.0603 l 0.0151,-0.0301 q 0.0151,-0.0301 0.0339,-0.0301 0.0301,0 0.0942,0.0339 0.0603,0.0339 0.17331,0.0339 0.32025,0 0.48226,-0.19215 0.16578,-0.18839 0.16578,-0.49357 l 0,-4.34035 0.0904,0 z m 0.16577,-1.37143 q 0,0.0791 -0.0678,0.14317 -0.0641,0.0603 -0.14318,0.0603 -0.0866,0 -0.1507,-0.0603 -0.0603,-0.0641 -0.0603,-0.14317 0,-0.0867 0.0603,-0.14694 0.0641,-0.064 0.1507,-0.064 0.0791,0 0.14318,0.064 0.0678,0.0603 0.0678,0.14694 z"
           inkscape:connector-curvature="0" />
        <path
           id="path5888"
           style="font-style:normal;font-variant:normal;font-weight:300;font-stretch:normal;font-family:Lato;-inkscape-font-specification:'Lato Light';letter-spacing:0.46757489px;fill:#c87137;fill-opacity:1;stroke:#b3b3b3;stroke-width:0.18702997;stroke-miterlimit:4;stroke-dasharray:none"
           d="m 359.36579,448.43948 q -0.0528,0 -0.0528,-0.0603 l -0.0226,-0.59906 q -0.15824,0.16578 -0.31648,0.30142 -0.15824,0.13186 -0.33532,0.22606 -0.17708,0.0904 -0.38054,0.1394 -0.20345,0.0528 -0.45212,0.0528 -0.16577,0 -0.33532,-0.0528 -0.16578,-0.049 -0.30141,-0.15824 -0.13564,-0.11303 -0.22229,-0.28635 -0.0829,-0.17708 -0.0829,-0.42951 0,-0.24867 0.14317,-0.44458 0.14694,-0.19969 0.44458,-0.33909 0.30142,-0.13941 0.7573,-0.21853 0.45589,-0.0829 1.08132,-0.098 l 0,-0.47472 q 0,-0.29011 -0.0641,-0.51994 -0.0641,-0.22983 -0.18838,-0.38807 -0.12433,-0.15824 -0.31272,-0.24113 -0.18838,-0.0867 -0.43704,-0.0867 -0.19592,0 -0.35417,0.0414 -0.15824,0.0414 -0.28257,0.10172 -0.12433,0.0603 -0.21852,0.13187 -0.0904,0.0716 -0.15825,0.13187 -0.0678,0.0603 -0.10926,0.10173 -0.0414,0.0414 -0.0603,0.0414 -0.0151,0 -0.0377,-0.0226 l -0.0151,-0.0151 q 0.27127,-0.28634 0.56138,-0.43705 0.29011,-0.1507 0.67442,-0.1507 0.28257,0 0.48602,0.0904 0.20723,0.0904 0.34286,0.25997 0.13564,0.16955 0.19969,0.41444 0.0641,0.24113 0.0641,0.54632 l 0,2.44144 -0.0151,0 z m -1.55982,-0.0151 q 0.25997,0 0.47096,-0.0603 0.21099,-0.0603 0.38807,-0.16201 0.17708,-0.10173 0.32779,-0.23359 0.15447,-0.13564 0.29764,-0.28258 l 0,-1.13783 q -1.18681,0.0377 -1.76326,0.29764 -0.57269,0.2562 -0.57269,0.72716 0,0.22229 0.0716,0.3843 0.0754,0.15824 0.19215,0.26374 0.12056,0.10173 0.27127,0.15447 0.15447,0.049 0.31648,0.049 z"
           inkscape:connector-curvature="0" />
        <path
           id="path5890"
           style="font-style:normal;font-variant:normal;font-weight:300;font-stretch:normal;font-family:Lato;-inkscape-font-specification:'Lato Light';letter-spacing:0.46757489px;fill:#c87137;fill-opacity:1;stroke:#b3b3b3;stroke-width:0.18702997;stroke-miterlimit:4;stroke-dasharray:none"
           d="m 360.45114,444.74717 0.0528,0 q 0.0301,0 0.0452,0.0188 0.0151,0.0151 0.0226,0.0339 l 1.46939,3.38336 q 0.0151,0.0339 0.0264,0.0678 0.0151,0.0339 0.0226,0.0716 0.008,-0.0377 0.0188,-0.0716 0.0151,-0.0339 0.0301,-0.0678 l 1.46939,-3.38336 q 0.0264,-0.0528 0.0678,-0.0528 l 0.0528,0 -1.60502,3.69231 -0.0678,0 -1.60503,-3.69231 z"
           inkscape:connector-curvature="0" />
        <path
           id="path5892"
           style="font-style:normal;font-variant:normal;font-weight:300;font-stretch:normal;font-family:Lato;-inkscape-font-specification:'Lato Light';letter-spacing:0.46757489px;fill:#c87137;fill-opacity:1;stroke:#b3b3b3;stroke-width:0.18702997;stroke-miterlimit:4;stroke-dasharray:none"
           d="m 367.26229,448.43948 q -0.0528,0 -0.0528,-0.0603 l -0.0226,-0.59906 q -0.15824,0.16578 -0.31649,0.30142 -0.15824,0.13186 -0.33532,0.22606 -0.17708,0.0904 -0.38053,0.1394 -0.20346,0.0528 -0.45212,0.0528 -0.16578,0 -0.33532,-0.0528 -0.16578,-0.049 -0.30142,-0.15824 -0.13563,-0.11303 -0.22229,-0.28635 -0.0829,-0.17708 -0.0829,-0.42951 0,-0.24867 0.14317,-0.44458 0.14694,-0.19969 0.44459,-0.33909 0.30141,-0.13941 0.7573,-0.21853 0.45589,-0.0829 1.08132,-0.098 l 0,-0.47472 q 0,-0.29011 -0.0641,-0.51994 -0.0641,-0.22983 -0.18839,-0.38807 -0.12433,-0.15824 -0.31271,-0.24113 -0.18839,-0.0867 -0.43705,-0.0867 -0.19592,0 -0.35416,0.0414 -0.15824,0.0414 -0.28258,0.10172 -0.12433,0.0603 -0.21852,0.13187 -0.0904,0.0716 -0.15824,0.13187 -0.0678,0.0603 -0.10927,0.10173 -0.0414,0.0414 -0.0603,0.0414 -0.0151,0 -0.0377,-0.0226 l -0.0151,-0.0151 q 0.27128,-0.28634 0.56139,-0.43705 0.29011,-0.1507 0.67441,-0.1507 0.28257,0 0.48603,0.0904 0.20722,0.0904 0.34286,0.25997 0.13563,0.16955 0.19968,0.41444 0.0641,0.24113 0.0641,0.54632 l 0,2.44144 -0.0151,0 z m -1.55981,-0.0151 q 0.25997,0 0.47096,-0.0603 0.21099,-0.0603 0.38807,-0.16201 0.17708,-0.10173 0.32778,-0.23359 0.15448,-0.13564 0.29765,-0.28258 l 0,-1.13783 q -1.18682,0.0377 -1.76327,0.29764 -0.57268,0.2562 -0.57268,0.72716 0,0.22229 0.0716,0.3843 0.0754,0.15824 0.19215,0.26374 0.12057,0.10173 0.27127,0.15447 0.15448,0.049 0.31649,0.049 z"
           inkscape:connector-curvature="0" />
        <path
           id="path5894"
           style="font-style:normal;font-variant:normal;font-weight:300;font-stretch:normal;font-family:Lato;-inkscape-font-specification:'Lato Light';letter-spacing:0.46757489px;fill:#c87137;fill-opacity:1;stroke:#b3b3b3;stroke-width:0.18702997;stroke-miterlimit:4;stroke-dasharray:none"
           d="m 370.9305,445.07119 q -0.0151,0.0226 -0.0377,0.0226 -0.0301,0 -0.0904,-0.049 -0.0565,-0.0528 -0.16955,-0.11303 -0.10926,-0.064 -0.27881,-0.1168 -0.16954,-0.0528 -0.41821,-0.0528 -0.23359,0 -0.42951,0.0716 -0.19215,0.0716 -0.33156,0.19215 -0.1394,0.1168 -0.21852,0.27127 -0.0753,0.15447 -0.0753,0.32402 0,0.19969 0.0942,0.33532 0.0942,0.13187 0.2449,0.22606 0.15447,0.0904 0.35039,0.15448 0.19592,0.0641 0.39937,0.1281 0.20346,0.0603 0.39937,0.13186 0.19592,0.0678 0.34663,0.17332 0.15447,0.10549 0.24867,0.25997 0.0942,0.1507 0.0942,0.37676 0,0.22606 -0.0829,0.42575 -0.0791,0.19969 -0.2336,0.34662 -0.15447,0.14694 -0.38053,0.2336 -0.22229,0.0867 -0.50864,0.0867 -0.19968,0 -0.35792,-0.0339 -0.15448,-0.0301 -0.29011,-0.0867 -0.13187,-0.0565 -0.24867,-0.1394 -0.11303,-0.0829 -0.22606,-0.18462 l 0.0226,-0.0226 q 0.0113,-0.0113 0.0188,-0.0151 0.008,-0.008 0.0264,-0.008 0.0301,0 0.098,0.0641 0.0678,0.0641 0.18838,0.14317 0.12433,0.0791 0.30895,0.14317 0.18838,0.0641 0.45965,0.0641 0.27128,0 0.4785,-0.0791 0.21099,-0.0791 0.35416,-0.21475 0.14317,-0.13941 0.21476,-0.32026 0.0754,-0.18461 0.0754,-0.3956 0,-0.21476 -0.0942,-0.35416 -0.0942,-0.14317 -0.24867,-0.24113 -0.15071,-0.098 -0.34662,-0.16201 -0.19592,-0.0678 -0.39938,-0.1281 -0.20345,-0.0603 -0.39937,-0.1281 -0.19592,-0.0678 -0.35039,-0.16578 -0.15071,-0.10173 -0.2449,-0.24867 -0.0942,-0.14694 -0.0942,-0.36546 0,-0.18462 0.0829,-0.35039 0.0829,-0.16955 0.23359,-0.29765 0.15071,-0.13187 0.35793,-0.20722 0.21099,-0.0791 0.46342,-0.0791 0.31272,0 0.55008,0.0867 0.23736,0.0829 0.45966,0.27504 l -0.0151,0.0226 z"
           inkscape:connector-curvature="0" />
        <path
           id="path5896"
           style="font-style:normal;font-variant:normal;font-weight:300;font-stretch:normal;font-family:Lato;-inkscape-font-specification:'Lato Light';letter-spacing:0.46757489px;fill:#c87137;fill-opacity:1;stroke:#b3b3b3;stroke-width:0.18702997;stroke-miterlimit:4;stroke-dasharray:none"
           d="m 375.01303,445.0938 q -0.0151,0.0151 -0.0301,0.0151 -0.0226,0 -0.0867,-0.0528 -0.0603,-0.0565 -0.18085,-0.12057 -0.11679,-0.064 -0.29764,-0.11679 -0.17708,-0.0565 -0.42951,-0.0565 -0.35793,0 -0.64051,0.1281 -0.28257,0.1281 -0.47849,0.36547 -0.19592,0.23736 -0.30141,0.57645 -0.10173,0.33909 -0.10173,0.76107 0,0.43705 0.10173,0.77614 0.10549,0.33532 0.29764,0.56891 0.19215,0.22983 0.45966,0.3504 0.27127,0.12056 0.60282,0.12056 0.29388,0 0.49733,-0.0678 0.20346,-0.0678 0.33533,-0.1507 0.13187,-0.0829 0.19968,-0.15071 0.0678,-0.0678 0.0904,-0.0678 0.0151,0 0.0301,0.0151 l 0.0151,0.0151 q -0.0565,0.0829 -0.16578,0.16955 -0.10926,0.0829 -0.25997,0.15447 -0.1507,0.0678 -0.33909,0.11303 -0.18838,0.0452 -0.40314,0.0452 -0.35793,0 -0.64427,-0.12811 -0.28634,-0.1281 -0.48979,-0.36923 -0.19969,-0.24489 -0.30895,-0.59529 -0.10927,-0.35039 -0.10927,-0.79874 0,-0.42952 0.10927,-0.77991 0.10926,-0.35416 0.31648,-0.60283 0.20722,-0.24866 0.50487,-0.3843 0.30141,-0.1394 0.68195,-0.1394 0.33532,0 0.59529,0.10926 0.26373,0.10549 0.45212,0.27504 l -0.0226,0.0226 z"
           inkscape:connector-curvature="0" />
        <path
           id="path5898"
           style="font-style:normal;font-variant:normal;font-weight:300;font-stretch:normal;font-family:Lato;-inkscape-font-specification:'Lato Light';letter-spacing:0.46757489px;fill:#c87137;fill-opacity:1;stroke:#b3b3b3;stroke-width:0.18702997;stroke-miterlimit:4;stroke-dasharray:none"
           d="m 376.48516,448.43948 0,-3.69231 0.0226,0 q 0.0527,0 0.0527,0.0603 l 0.0113,1.02481 q 0.0791,-0.27504 0.19592,-0.48603 0.11679,-0.21476 0.27504,-0.3617 0.15824,-0.14694 0.35792,-0.22229 0.20346,-0.0754 0.45589,-0.0754 0.18085,0 0.33532,0.0377 0.15448,0.0377 0.29765,0.1055 l -0.0151,0.0301 q -0.008,0.0113 -0.0151,0.0226 -0.004,0.008 -0.0226,0.008 -0.0188,0 -0.064,-0.0188 -0.0414,-0.0188 -0.11303,-0.0414 -0.0678,-0.0226 -0.16954,-0.0414 -0.098,-0.0188 -0.2336,-0.0188 -0.49356,0 -0.79874,0.32402 -0.30518,0.32402 -0.48226,0.91931 l 0,2.42637 -0.0904,0 z"
           inkscape:connector-curvature="0" />
        <path
           id="path5900"
           style="font-style:normal;font-variant:normal;font-weight:300;font-stretch:normal;font-family:Lato;-inkscape-font-specification:'Lato Light';letter-spacing:0.46757489px;fill:#c87137;fill-opacity:1;stroke:#b3b3b3;stroke-width:0.18702997;stroke-miterlimit:4;stroke-dasharray:none"
           d="m 380.12947,444.74717 0,3.69231 -0.0904,0 0,-3.69231 0.0904,0 z m 0.16577,-1.37143 q 0,0.0791 -0.0678,0.14317 -0.0641,0.0603 -0.14317,0.0603 -0.0867,0 -0.15071,-0.0603 -0.0603,-0.0641 -0.0603,-0.14317 0,-0.0867 0.0603,-0.14694 0.064,-0.064 0.15071,-0.064 0.0791,0 0.14317,0.064 0.0678,0.0603 0.0678,0.14694 z"
           inkscape:connector-curvature="0" />
        <path
           id="path5902"
           style="font-style:normal;font-variant:normal;font-weight:300;font-stretch:normal;font-family:Lato;-inkscape-font-specification:'Lato Light';letter-spacing:0.46757489px;fill:#c87137;fill-opacity:1;stroke:#b3b3b3;stroke-width:0.18702997;stroke-miterlimit:4;stroke-dasharray:none"
           d="m 382.05631,449.79584 0,-5.04867 0.0226,0 q 0.0528,0 0.0528,0.0603 l 0.0113,0.70079 q 0.24867,-0.38054 0.59906,-0.59906 0.35416,-0.22229 0.77614,-0.22229 0.71586,0 1.09639,0.46342 0.38054,0.45966 0.38054,1.42041 0,0.40314 -0.1055,0.75353 -0.10173,0.34663 -0.30518,0.6066 -0.20345,0.2562 -0.50864,0.40691 -0.30141,0.14694 -0.70078,0.14694 -0.81382,0 -1.22826,-0.65935 l 0,1.97049 -0.0904,0 z m 1.46185,-5.0336 q -0.41068,0 -0.76484,0.22983 -0.35039,0.22983 -0.60659,0.63673 l 0,2.07599 q 0.24113,0.38807 0.53878,0.54631 0.29764,0.15824 0.68948,0.15824 0.38807,0 0.67441,-0.1394 0.28634,-0.14317 0.47473,-0.39184 0.19215,-0.24866 0.28634,-0.58399 0.0942,-0.33532 0.0942,-0.72339 0,-0.91931 -0.35416,-1.36389 -0.35039,-0.44459 -1.03234,-0.44459 z"
           inkscape:connector-curvature="0" />
        <path
           id="path5904"
           style="font-style:normal;font-variant:normal;font-weight:300;font-stretch:normal;font-family:Lato;-inkscape-font-specification:'Lato Light';letter-spacing:0.46757489px;fill:#c87137;fill-opacity:1;stroke:#b3b3b3;stroke-width:0.18702997;stroke-miterlimit:4;stroke-dasharray:none"
           d="m 387.36521,448.49977 q -0.32402,0 -0.50863,-0.17708 -0.18462,-0.17708 -0.18462,-0.58399 l 0,-2.75793 -0.61036,0 q -0.0528,0 -0.0528,-0.0377 l 0,-0.0226 0.66311,-0.0151 0.0301,-1.48446 q 0,-0.0188 0.008,-0.0339 0.0113,-0.0188 0.0301,-0.0188 l 0.0226,0 0,1.53721 1.2584,0 0,0.0754 -1.2584,0 0,2.75793 q 0,0.18838 0.0452,0.32025 0.049,0.1281 0.13187,0.21099 0.0829,0.0791 0.19215,0.1168 0.10926,0.0377 0.23359,0.0377 0.15825,0 0.27504,-0.049 0.12057,-0.049 0.20346,-0.10549 0.0829,-0.0565 0.13187,-0.1055 0.0527,-0.049 0.0754,-0.049 0.0151,0 0.0301,0.0151 l 0.0151,0.0151 q -0.0565,0.0754 -0.1394,0.14317 -0.0791,0.0641 -0.17708,0.11303 -0.0942,0.0452 -0.20346,0.0716 -0.10549,0.0264 -0.21099,0.0264 z"
           inkscape:connector-curvature="0" />
        <path
           id="path5906"
           style="font-style:normal;font-variant:normal;font-weight:300;font-stretch:normal;font-family:Lato;-inkscape-font-specification:'Lato Light';letter-spacing:0.46757489px;fill:#c87137;fill-opacity:1;stroke:#b3b3b3;stroke-width:0.18702997;stroke-miterlimit:4;stroke-dasharray:none"
           d="m 390.14461,446.69882 q 0,0.22229 0.0377,0.42952 0.0414,0.20345 0.0904,0.4069 0.049,0.20346 0.0866,0.41445 0.0414,0.20722 0.0414,0.42951 0,0.20345 -0.0678,0.38054 -0.0641,0.17708 -0.18462,0.30894 -0.11679,0.13187 -0.28634,0.20723 -0.16578,0.0754 -0.36546,0.0754 l -0.21099,0 0,-0.0301 q 0,-0.0377 0.0452,-0.0377 l 0.16578,0 q 0.17331,0 0.32402,-0.0641 0.1507,-0.064 0.25997,-0.18462 0.11303,-0.11679 0.17331,-0.28257 0.0641,-0.16578 0.0641,-0.373 0,-0.21476 -0.0414,-0.42198 -0.0377,-0.21099 -0.0867,-0.41821 -0.049,-0.21099 -0.0904,-0.41821 -0.0377,-0.21099 -0.0377,-0.42198 0,-0.14317 0.049,-0.25243 0.0527,-0.10926 0.13187,-0.18839 0.0791,-0.0791 0.17708,-0.12433 0.098,-0.049 0.18838,-0.0678 -0.0904,-0.0151 -0.18838,-0.0603 -0.098,-0.049 -0.17708,-0.1281 -0.0791,-0.0791 -0.13187,-0.18838 -0.049,-0.11303 -0.049,-0.2562 0,-0.21099 0.0377,-0.41822 0.0414,-0.21098 0.0904,-0.41821 0.049,-0.21099 0.0867,-0.41821 0.0414,-0.21099 0.0414,-0.42574 0,-0.20722 -0.0641,-0.373 -0.0603,-0.16578 -0.17331,-0.28258 -0.10927,-0.12056 -0.25997,-0.18461 -0.15071,-0.0641 -0.32402,-0.0641 l -0.16578,0 q -0.0452,0 -0.0452,-0.0377 l 0,-0.0301 0.21099,0 q 0.19968,0 0.36546,0.0754 0.16955,0.0754 0.28634,0.20722 0.12057,0.13187 0.18462,0.30895 0.0678,0.17708 0.0678,0.38054 0,0.22229 -0.0414,0.43328 -0.0377,0.20722 -0.0866,0.41067 -0.049,0.20346 -0.0904,0.41068 -0.0377,0.20722 -0.0377,0.42575 0,0.13186 0.049,0.24113 0.049,0.10926 0.13563,0.18838 0.0867,0.0791 0.20346,0.12433 0.12056,0.0414 0.25996,0.0414 l 0,0.0753 q -0.1394,0 -0.25996,0.0452 -0.1168,0.0452 -0.20346,0.12434 -0.0867,0.0791 -0.13563,0.18838 -0.049,0.10926 -0.049,0.23736 z"
           inkscape:connector-curvature="0" />
      </g>
    </g>
  </g>
</svg>
