<?xml version="1.0" encoding="UTF-8" standalone="no"?>
<!-- Created with Inkscape (http://www.inkscape.org/) -->

<svg
   xmlns:dc="http://purl.org/dc/elements/1.1/"
   xmlns:cc="http://creativecommons.org/ns#"
   xmlns:rdf="http://www.w3.org/1999/02/22-rdf-syntax-ns#"
   xmlns:svg="http://www.w3.org/2000/svg"
   xmlns="http://www.w3.org/2000/svg"
   xmlns:sodipodi="http://sodipodi.sourceforge.net/DTD/sodipodi-0.dtd"
   xmlns:inkscape="http://www.inkscape.org/namespaces/inkscape"
   width="47.12574mm"
   height="19.014618mm"
   viewBox="0 0 166.98097 67.374631"
   id="svg4898"
   version="1.1"
   inkscape:version="0.91 r13725"
   sodipodi:docname="nodexo.svg">
  <defs
     id="defs4900">
    <clipPath
       id="clipPath5402-8-5-4-7-9-0-1-0-5-4-9"
       clipPathUnits="userSpaceOnUse">
      <path
         style="fill:#ffffff;fill-opacity:1;stroke:none;stroke-width:0.5;stroke-miterlimit:4;stroke-dasharray:none;stroke-opacity:1"
         d="m 64.409433,1495.7842 2.986496,0 0,4.3608 -2.986496,0 z"
         id="path5404-7-2-5-8-6-2-7-8-5-1-1"
         inkscape:connector-curvature="0" />
    </clipPath>
    <clipPath
       id="clipPath5402-6-5-5-0-5-5-6-5-0-8-4-1"
       clipPathUnits="userSpaceOnUse">
      <path
         style="fill:#ffffff;fill-opacity:1;stroke:none;stroke-width:0.5;stroke-miterlimit:4;stroke-dasharray:none;stroke-opacity:1"
         d="m 64.409433,1495.7842 2.986496,0 0,4.3608 -2.986496,0 z"
         id="path5404-2-2-00-9-1-8-2-5-6-9-5-7"
         inkscape:connector-curvature="0" />
    </clipPath>
  </defs>
  <sodipodi:namedview
     id="base"
     pagecolor="#ffffff"
     bordercolor="#666666"
     borderopacity="1.0"
     inkscape:pageopacity="0.0"
     inkscape:pageshadow="2"
     inkscape:zoom="5.6"
     inkscape:cx="109.33675"
     inkscape:cy="35.571713"
     inkscape:document-units="px"
     inkscape:current-layer="layer1"
     showgrid="false"
     fit-margin-top="0"
     fit-margin-left="0"
     fit-margin-right="0"
     fit-margin-bottom="0"
     inkscape:window-width="2560"
     inkscape:window-height="1377"
     inkscape:window-x="-8"
     inkscape:window-y="-8"
     inkscape:window-maximized="1" />
  <metadata
     id="metadata4903">
    <rdf:RDF>
      <cc:Work
         rdf:about="">
        <dc:format>image/svg+xml</dc:format>
        <dc:type
           rdf:resource="http://purl.org/dc/dcmitype/StillImage" />
        <dc:title></dc:title>
      </cc:Work>
    </rdf:RDF>
  </metadata>
  <g
     inkscape:label="Ebene 1"
     inkscape:groupmode="layer"
     id="layer1"
     transform="translate(-739.6333,-921.14172)">
    <g
       id="g5717">
      <rect
         inkscape:export-filename="C:\Users\Kortstiege\Desktop\g4641.png"
         inkscape:export-ydpi="1200"
         inkscape:export-xdpi="1200"
         ry="0"
         y="921.14172"
         x="739.6333"
         height="67.374634"
         width="166.98097"
         id="rect5864-9-3-8-5-6-2-1-3"
         style="fill:#111111;fill-opacity:1;stroke:none" />
      <g
         transform="translate(-1.1606522,1.3375218)"
         id="g5656">
        <g
           style="font-style:normal;font-weight:normal;font-size:8.05788803px;line-height:125%;font-family:sans-serif;letter-spacing:0px;word-spacing:0px;opacity:0.75;fill:#cccccc;fill-opacity:1;stroke:none"
           id="text4576-8-3-0-4-7-6-1-9"
           transform="translate(1.6387141,0)">
          <path
             d="m 786.19441,976.93179 q 0,0.40132 0.23213,0.59805 0.23607,0.20066 0.79871,0.21246 l 0,0.35804 q -0.76723,0 -1.0938,-0.29508 -0.32263,-0.29509 -0.32263,-0.90888 l 0,-1.32593 q 0,-0.80657 -0.90494,-0.82231 l 0,-0.31476 q 0.48002,-0.008 0.69248,-0.20066 0.21246,-0.1928 0.21246,-0.58231 l 0,-1.37708 q 0,-1.17642 1.41643,-1.20003 l 0,0.35411 q -0.54296,0.0197 -0.7869,0.2282 -0.24394,0.20853 -0.24394,0.61772 l 0,1.20002 q 0,0.51149 -0.17312,0.7633 -0.17312,0.25181 -0.5587,0.33443 l 0,0.0315 q 0.38164,0.0787 0.55476,0.3305 0.17706,0.24787 0.17706,0.73182 l 0,1.26691 z"
             style="font-style:normal;font-variant:normal;font-weight:300;font-stretch:normal;font-family:'Open Sans';-inkscape-font-specification:'Open Sans Light';fill:#cccccc;fill-opacity:1"
             id="path5579"
             inkscape:connector-curvature="0" />
          <path
             d="m 789.9558,976.90425 q -0.93248,0 -1.45577,-0.57444 -0.51935,-0.57444 -0.51935,-1.60921 0,-1.02298 0.50361,-1.63676 0.50362,-0.61772 1.35741,-0.61772 0.75543,0 1.19216,0.52722 0.43673,0.52723 0.43673,1.43217 l 0,0.31476 -3.08072,0 q 0.008,0.88133 0.40919,1.3456 0.40525,0.46428 1.15674,0.46428 0.36591,0 0.64133,-0.0512 0.27935,-0.0512 0.70428,-0.22034 l 0,0.35411 q -0.36198,0.15738 -0.66887,0.21246 -0.30689,0.059 -0.67674,0.059 z m -0.1141,-4.09189 q -0.61772,0 -0.9915,0.40919 -0.37377,0.40525 -0.43673,1.17248 l 2.644,0 q 0,-0.74362 -0.32263,-1.16068 -0.32263,-0.42099 -0.89314,-0.42099 z"
             style="font-style:normal;font-variant:normal;font-weight:300;font-stretch:normal;font-family:'Open Sans';-inkscape-font-specification:'Open Sans Light';fill:#cccccc;fill-opacity:1"
             id="path5581"
             inkscape:connector-curvature="0" />
          <path
             d="m 797.99402,976.82556 0,-2.80531 q 0,-0.62559 -0.24394,-0.91281 -0.24394,-0.28722 -0.74756,-0.28722 -0.65706,0 -0.97182,0.36198 -0.31477,0.36198 -0.31477,1.13708 l 0,2.50628 -0.39738,0 0,-2.92334 q 0,-1.082 -0.9915,-1.082 -0.6728,0 -0.97969,0.39346 -0.3069,0.38951 -0.3069,1.25117 l 0,2.36071 -0.38951,0 0,-4.27682 0.32263,0 0.0826,0.58625 0.0236,0 q 0.17705,-0.3187 0.50362,-0.49182 0.32656,-0.17705 0.72001,-0.17705 1.01117,0 1.29839,0.75936 l 0.0157,0 q 0.20853,-0.36591 0.5587,-0.56264 0.35411,-0.19672 0.80264,-0.19672 0.70035,0 1.05052,0.37378 0.35017,0.37378 0.35017,1.18822 l 0,2.79744 -0.38558,0 z"
             style="font-style:normal;font-variant:normal;font-weight:300;font-stretch:normal;font-family:'Open Sans';-inkscape-font-specification:'Open Sans Light';fill:#cccccc;fill-opacity:1"
             id="path5583"
             inkscape:connector-curvature="0" />
          <path
             d="m 801.57049,972.46612 q 0.89707,0 1.34954,0.56657 0.45641,0.56263 0.45641,1.64856 0,1.06625 -0.48002,1.64463 -0.47607,0.57837 -1.34166,0.57837 -0.45641,0 -0.82232,-0.18885 -0.36591,-0.18886 -0.57837,-0.5351 l -0.0354,0 -0.11017,0.64526 -0.24394,0 0,-6.1221 0.38952,0 0,1.53839 q 0,0.34624 -0.0157,0.63739 l -0.0118,0.33444 0.0275,0 q 0.24394,-0.38559 0.58624,-0.56657 0.34624,-0.18099 0.83018,-0.18099 z m -0.008,0.3541 q -0.75542,0 -1.08199,0.4328 -0.32656,0.4328 -0.32656,1.42823 l 0,0.0669 q 0,0.96789 0.33837,1.38888 0.3423,0.42099 1.06232,0.42099 0.70034,0 1.05445,-0.48788 0.3541,-0.49181 0.3541,-1.39675 0,-1.85316 -1.40069,-1.85316 z"
             style="font-style:normal;font-variant:normal;font-weight:300;font-stretch:normal;font-family:'Open Sans';-inkscape-font-specification:'Open Sans Light';fill:#cccccc;fill-opacity:1"
             id="path5585"
             inkscape:connector-curvature="0" />
          <path
             d="m 806.24863,972.46612 q 0.27148,0 0.58231,0.0551 l -0.0748,0.37378 q -0.26754,-0.0669 -0.55476,-0.0669 -0.5469,0 -0.89707,0.46428 -0.35017,0.46427 -0.35017,1.17248 l 0,2.36071 -0.38952,0 0,-4.27682 0.3305,0 0.0393,0.77117 0.0276,0 q 0.26361,-0.47214 0.56263,-0.661 0.29902,-0.19279 0.72395,-0.19279 z"
             style="font-style:normal;font-variant:normal;font-weight:300;font-stretch:normal;font-family:'Open Sans';-inkscape-font-specification:'Open Sans Light';fill:#cccccc;fill-opacity:1"
             id="path5587"
             inkscape:connector-curvature="0" />
          <path
             d="m 810.29331,976.82556 -0.0984,-0.67674 -0.0315,0 q -0.32263,0.41313 -0.66493,0.58625 -0.33837,0.16918 -0.80264,0.16918 -0.62952,0 -0.97969,-0.32263 -0.35018,-0.32263 -0.35018,-0.89313 0,-0.62559 0.51936,-0.97183 0.52329,-0.34624 1.51085,-0.36591 l 0.81445,-0.0236 0,-0.28328 q 0,-0.60985 -0.24788,-0.92068 -0.24787,-0.31082 -0.7987,-0.31082 -0.59411,0 -1.23151,0.33049 l -0.14557,-0.33836 q 0.70428,-0.3305 1.39282,-0.3305 0.70427,0 1.05051,0.36591 0.35017,0.36591 0.35017,1.14101 l 0,2.84465 -0.28722,0 z m -1.5738,-0.27541 q 0.6846,0 1.07805,-0.38952 0.39739,-0.39345 0.39739,-1.08986 l 0,-0.421 -0.74756,0.0315 q -0.901,0.0433 -1.28658,0.28329 -0.38165,0.23607 -0.38165,0.73968 0,0.40133 0.24394,0.62559 0.24787,0.22034 0.69641,0.22034 z"
             style="font-style:normal;font-variant:normal;font-weight:300;font-stretch:normal;font-family:'Open Sans';-inkscape-font-specification:'Open Sans Light';fill:#cccccc;fill-opacity:1"
             id="path5589"
             inkscape:connector-curvature="0" />
          <path
             d="m 813.66913,976.90425 q -0.91674,0 -1.4361,-0.57837 -0.51935,-0.57838 -0.51935,-1.61315 0,-1.06232 0.53902,-1.6525 0.53903,-0.59411 1.47545,-0.59411 0.55476,0 1.06232,0.19279 l -0.10624,0.34624 q -0.55476,-0.18493 -0.96395,-0.18493 -0.7869,0 -1.19216,0.48788 -0.40525,0.48395 -0.40525,1.39676 0,0.86559 0.40525,1.35741 0.40526,0.48788 1.13314,0.48788 0.58231,0 1.08199,-0.20853 l 0,0.36197 q -0.40919,0.20066 -1.07412,0.20066 z"
             style="font-style:normal;font-variant:normal;font-weight:300;font-stretch:normal;font-family:'Open Sans';-inkscape-font-specification:'Open Sans Light';fill:#cccccc;fill-opacity:1"
             id="path5591"
             inkscape:connector-curvature="0" />
          <path
             d="m 817.51315,976.90425 q -0.93248,0 -1.45577,-0.57444 -0.51936,-0.57444 -0.51936,-1.60921 0,-1.02298 0.50362,-1.63676 0.50362,-0.61772 1.35741,-0.61772 0.75543,0 1.19216,0.52722 0.43673,0.52723 0.43673,1.43217 l 0,0.31476 -3.08073,0 q 0.008,0.88133 0.40919,1.3456 0.40526,0.46428 1.15675,0.46428 0.36591,0 0.64133,-0.0512 0.27935,-0.0512 0.70428,-0.22034 l 0,0.35411 q -0.36198,0.15738 -0.66887,0.21246 -0.30689,0.059 -0.67674,0.059 z m -0.1141,-4.09189 q -0.61772,0 -0.9915,0.40919 -0.37378,0.40525 -0.43673,1.17248 l 2.644,0 q 0,-0.74362 -0.32264,-1.16068 -0.32263,-0.42099 -0.89313,-0.42099 z"
             style="font-style:normal;font-variant:normal;font-weight:300;font-stretch:normal;font-family:'Open Sans';-inkscape-font-specification:'Open Sans Light';fill:#cccccc;fill-opacity:1"
             id="path5593"
             inkscape:connector-curvature="0" />
          <path
             d="m 823.82411,978.76134 q -0.31476,0 -0.53116,-0.0984 l 0,-0.33837 q 0.27148,0.0787 0.50756,0.0787 0.59411,0 0.59411,-0.69247 l 0,-5.16209 0.38951,0 0,5.107 q 0,0.53116 -0.2518,0.81838 -0.24788,0.28722 -0.70822,0.28722 z m 0.51542,-7.40082 q 0,-0.37771 0.24788,-0.37771 0.12197,0 0.18886,0.0984 0.0708,0.0984 0.0708,0.27935 0,0.17705 -0.0708,0.27935 -0.0669,0.1023 -0.18886,0.1023 -0.24788,0 -0.24788,-0.38165 z"
             style="font-style:normal;font-variant:normal;font-weight:300;font-stretch:normal;font-family:'Open Sans';-inkscape-font-specification:'Open Sans Light';fill:#cccccc;fill-opacity:1"
             id="path5595"
             inkscape:connector-curvature="0" />
          <path
             d="m 828.81701,976.82556 -0.0984,-0.67674 -0.0315,0 q -0.32263,0.41313 -0.66493,0.58625 -0.33837,0.16918 -0.80264,0.16918 -0.62952,0 -0.9797,-0.32263 -0.35017,-0.32263 -0.35017,-0.89313 0,-0.62559 0.51936,-0.97183 0.52329,-0.34624 1.51085,-0.36591 l 0.81445,-0.0236 0,-0.28328 q 0,-0.60985 -0.24788,-0.92068 -0.24787,-0.31082 -0.7987,-0.31082 -0.59412,0 -1.23151,0.33049 l -0.14557,-0.33836 q 0.70427,-0.3305 1.39281,-0.3305 0.70428,0 1.05052,0.36591 0.35017,0.36591 0.35017,1.14101 l 0,2.84465 -0.28722,0 z m -1.5738,-0.27541 q 0.6846,0 1.07805,-0.38952 0.39739,-0.39345 0.39739,-1.08986 l 0,-0.421 -0.74756,0.0315 q -0.901,0.0433 -1.28658,0.28329 -0.38165,0.23607 -0.38165,0.73968 0,0.40133 0.24394,0.62559 0.24787,0.22034 0.69641,0.22034 z"
             style="font-style:normal;font-variant:normal;font-weight:300;font-stretch:normal;font-family:'Open Sans';-inkscape-font-specification:'Open Sans Light';fill:#cccccc;fill-opacity:1"
             id="path5597"
             inkscape:connector-curvature="0" />
          <path
             d="m 831.42167,976.82556 -1.6525,-4.27682 0.40132,0 1.1056,2.90761 q 0.22033,0.5587 0.3305,0.97576 l 0.0236,0 q 0.16132,-0.53509 0.3305,-0.98363 l 1.1056,-2.89974 0.40132,0 -1.65249,4.27682 -0.39345,0 z"
             style="font-style:normal;font-variant:normal;font-weight:300;font-stretch:normal;font-family:'Open Sans';-inkscape-font-specification:'Open Sans Light';fill:#cccccc;fill-opacity:1"
             id="path5599"
             inkscape:connector-curvature="0" />
          <path
             d="m 836.78048,976.82556 -0.0984,-0.67674 -0.0315,0 q -0.32263,0.41313 -0.66494,0.58625 -0.33837,0.16918 -0.80264,0.16918 -0.62952,0 -0.97969,-0.32263 -0.35017,-0.32263 -0.35017,-0.89313 0,-0.62559 0.51935,-0.97183 0.52329,-0.34624 1.51086,-0.36591 l 0.81444,-0.0236 0,-0.28328 q 0,-0.60985 -0.24787,-0.92068 -0.24788,-0.31082 -0.79871,-0.31082 -0.59411,0 -1.2315,0.33049 l -0.14558,-0.33836 q 0.70428,-0.3305 1.39282,-0.3305 0.70428,0 1.05051,0.36591 0.35018,0.36591 0.35018,1.14101 l 0,2.84465 -0.28722,0 z m -1.57381,-0.27541 q 0.6846,0 1.07806,-0.38952 0.39738,-0.39345 0.39738,-1.08986 l 0,-0.421 -0.74756,0.0315 q -0.901,0.0433 -1.28658,0.28329 -0.38165,0.23607 -0.38165,0.73968 0,0.40133 0.24394,0.62559 0.24787,0.22034 0.69641,0.22034 z"
             style="font-style:normal;font-variant:normal;font-weight:300;font-stretch:normal;font-family:'Open Sans';-inkscape-font-specification:'Open Sans Light';fill:#cccccc;fill-opacity:1"
             id="path5601"
             inkscape:connector-curvature="0" />
          <path
             d="m 841.10057,975.71209 q 0,0.57444 -0.43673,0.88527 -0.43673,0.30689 -1.23937,0.30689 -0.85772,0 -1.36134,-0.26361 l 0,-0.42099 q 0.64526,0.32263 1.36134,0.32263 0.63346,0 0.96002,-0.20853 0.3305,-0.21247 0.3305,-0.56264 0,-0.32263 -0.26361,-0.54296 -0.25968,-0.22033 -0.85773,-0.4328 -0.64132,-0.23213 -0.901,-0.39738 -0.25968,-0.16919 -0.39345,-0.37772 -0.12984,-0.21246 -0.12984,-0.51542 0,-0.48001 0.40132,-0.75936 0.40525,-0.27935 1.12921,-0.27935 0.69247,0 1.31412,0.25968 l -0.14557,0.3541 q -0.62953,-0.25968 -1.16855,-0.25968 -0.52329,0 -0.83019,0.17312 -0.30689,0.17312 -0.30689,0.48001 0,0.33444 0.23607,0.5351 0.24001,0.20066 0.93248,0.44853 0.57838,0.20853 0.84199,0.37772 0.26361,0.16525 0.39345,0.37771 0.13377,0.21246 0.13377,0.49968 z"
             style="font-style:normal;font-variant:normal;font-weight:300;font-stretch:normal;font-family:'Open Sans';-inkscape-font-specification:'Open Sans Light';fill:#cccccc;fill-opacity:1"
             id="path5603"
             inkscape:connector-curvature="0" />
          <path
             d="m 843.91768,976.90425 q -0.91674,0 -1.43609,-0.57837 -0.51936,-0.57838 -0.51936,-1.61315 0,-1.06232 0.53903,-1.6525 0.53903,-0.59411 1.47544,-0.59411 0.55477,0 1.06232,0.19279 l -0.10623,0.34624 q -0.55477,-0.18493 -0.96396,-0.18493 -0.7869,0 -1.19216,0.48788 -0.40525,0.48395 -0.40525,1.39676 0,0.86559 0.40525,1.35741 0.40526,0.48788 1.13314,0.48788 0.58231,0 1.082,-0.20853 l 0,0.36197 q -0.40919,0.20066 -1.07413,0.20066 z"
             style="font-style:normal;font-variant:normal;font-weight:300;font-stretch:normal;font-family:'Open Sans';-inkscape-font-specification:'Open Sans Light';fill:#cccccc;fill-opacity:1"
             id="path5605"
             inkscape:connector-curvature="0" />
          <path
             d="m 847.71843,972.46612 q 0.27148,0 0.58231,0.0551 l -0.0748,0.37378 q -0.26755,-0.0669 -0.55477,-0.0669 -0.54689,0 -0.89706,0.46428 -0.35018,0.46427 -0.35018,1.17248 l 0,2.36071 -0.38951,0 0,-4.27682 0.3305,0 0.0393,0.77117 0.0275,0 q 0.26362,-0.47214 0.56264,-0.661 0.29902,-0.19279 0.72395,-0.19279 z"
             style="font-style:normal;font-variant:normal;font-weight:300;font-stretch:normal;font-family:'Open Sans';-inkscape-font-specification:'Open Sans Light';fill:#cccccc;fill-opacity:1"
             id="path5607"
             inkscape:connector-curvature="0" />
          <path
             d="m 849.55585,976.82556 -0.38952,0 0,-4.27682 0.38952,0 0,4.27682 z m -0.4446,-5.46504 q 0,-0.37771 0.24787,-0.37771 0.12197,0 0.18886,0.0984 0.0708,0.0984 0.0708,0.27935 0,0.17705 -0.0708,0.27935 -0.0669,0.1023 -0.18886,0.1023 -0.24787,0 -0.24787,-0.38165 z"
             style="font-style:normal;font-variant:normal;font-weight:300;font-stretch:normal;font-family:'Open Sans';-inkscape-font-specification:'Open Sans Light';fill:#cccccc;fill-opacity:1"
             id="path5609"
             inkscape:connector-curvature="0" />
          <path
             d="m 852.8215,976.90425 q -0.98757,0 -1.44004,-0.73969 l -0.0275,0 0.0118,0.3305 q 0.0157,0.29116 0.0157,0.63739 l 0,1.62889 -0.38951,0 0,-6.2126 0.33049,0 0.0748,0.60985 0.0236,0 q 0.44066,-0.69247 1.40855,-0.69247 0.8656,0 1.31807,0.5705 0.4564,0.56657 0.4564,1.6525 0,1.05445 -0.48001,1.63676 -0.47608,0.57837 -1.30232,0.57837 z m -0.008,-0.34624 q 0.65706,0 1.0151,-0.48788 0.36198,-0.48788 0.36198,-1.36527 0,-1.88464 -1.36135,-1.88464 -0.74755,0 -1.09773,0.41313 -0.35017,0.40919 -0.35017,1.33773 l 0,0.12591 q 0,1.0033 0.33444,1.43216 0.33836,0.42886 1.09773,0.42886 z"
             style="font-style:normal;font-variant:normal;font-weight:300;font-stretch:normal;font-family:'Open Sans';-inkscape-font-specification:'Open Sans Light';fill:#cccccc;fill-opacity:1"
             id="path5611"
             inkscape:connector-curvature="0" />
          <path
             d="m 856.92126,976.55801 q 0.36985,0 0.64526,-0.063 l 0,0.31476 q -0.28328,0.0944 -0.65313,0.0944 -0.56657,0 -0.83805,-0.30296 -0.26755,-0.30295 -0.26755,-0.95215 l 0,-2.76203 -0.63345,0 0,-0.2282 0.63345,-0.17705 0.19673,-0.96789 0.20066,0 0,1.03477 1.25511,0 0,0.33837 -1.25511,0 0,2.70695 q 0,0.49181 0.17312,0.72788 0.17312,0.23607 0.54296,0.23607 z"
             style="font-style:normal;font-variant:normal;font-weight:300;font-stretch:normal;font-family:'Open Sans';-inkscape-font-specification:'Open Sans Light';fill:#cccccc;fill-opacity:1"
             id="path5613"
             inkscape:connector-curvature="0" />
          <path
             d="m 859.09705,975.66488 q 0,-0.48395 0.17312,-0.73182 0.17705,-0.25181 0.5587,-0.3305 l 0,-0.0315 q -0.38165,-0.0787 -0.5587,-0.3305 -0.17312,-0.2518 -0.17312,-0.76723 l 0,-1.20002 q 0,-0.40526 -0.24394,-0.61379 -0.24001,-0.21246 -0.7869,-0.23213 l 0,-0.35411 q 0.6846,0 1.05051,0.30689 0.36591,0.30296 0.36591,0.89314 l 0,1.37708 q 0,0.39345 0.21247,0.58624 0.21639,0.18886 0.69247,0.19673 l 0,0.31476 q -0.90494,0.0157 -0.90494,0.82231 l 0,1.32593 q 0,0.60985 -0.32656,0.90494 -0.32263,0.29902 -1.08986,0.29902 l 0,-0.35804 q 0.55476,-0.008 0.79083,-0.20853 0.24001,-0.19672 0.24001,-0.60198 l 0,-1.26691 z"
             style="font-style:normal;font-variant:normal;font-weight:300;font-stretch:normal;font-family:'Open Sans';-inkscape-font-specification:'Open Sans Light';fill:#cccccc;fill-opacity:1"
             id="path5615"
             inkscape:connector-curvature="0" />
        </g>
        <rect
           style="opacity:0.15;fill:#ffffff;fill-opacity:1;stroke:none"
           id="rect5404-2-4-3-7"
           width="140.89285"
           height="0.17857143"
           x="753.83801"
           y="966.63721"
           inkscape:export-filename="C:\Users\Kortstiege\Desktop\g4641.png"
           inkscape:export-xdpi="1200"
           inkscape:export-ydpi="1200" />
        <g
           id="g5617"
           transform="translate(5.1762582e-5,0)">
          <g
             inkscape:export-ydpi="1200"
             inkscape:export-xdpi="1200"
             style="fill:#ffffff;fill-opacity:1;stroke:#333333"
             id="g5322-2-5-8-42-4-8-7-7-3"
             transform="matrix(0.80982332,0,0,0.80982332,588.85752,-202.20508)">
            <g
               id="text5135-87-1-2-8-7-4-2-6-0-5-8-2-4-8"
               style="font-style:normal;font-weight:normal;font-size:24.7136898px;line-height:125%;font-family:sans-serif;letter-spacing:0px;word-spacing:0px;fill:#ffffff;fill-opacity:1;stroke:#333333;stroke-width:0.47422796;stroke-linecap:butt;stroke-linejoin:miter;stroke-miterlimit:4;stroke-dasharray:none;stroke-opacity:1"
               transform="matrix(1.0986576,0,0,0.91020169,242.60086,0.29591086)" />
            <path
               inkscape:connector-curvature="0"
               style="fill:#ffffff;fill-opacity:1;stroke:#333333;stroke-width:0.5;stroke-miterlimit:4;stroke-dasharray:none;stroke-opacity:1"
               d="m 288.9043,1418.3477 c -1.0182,0 -1.52735,0.3943 -1.52735,1.1816 l 0,3.457 -0.0215,0 0,2.2227 0.0215,0 0,7.8164 c 0,1.5746 -1.77575,2.3613 -5.32812,2.3613 l -7.39844,0 c -3.14509,0 -4.71875,-0.7867 -4.71875,-2.3613 l 0,-5.2305 c 0,-1.7245 1.64102,-2.5859 4.92188,-2.5859 l 9.86914,0 0,-2.2227 -9.19141,0 c -5.86028,0 -8.78906,1.4903 -8.78906,4.4707 l 0,6.1309 c 0,2.6806 2.92878,4.0215 8.78906,4.0215 l 6.00781,0 c 5.99604,0 8.99414,-1.4261 8.99414,-4.2754 l 0,-13.8047 c 0,-0.7873 -0.54283,-1.1816 -1.6289,-1.1816 z m 53.25195,4.498 c -0.38465,0 -0.72343,0.113 -1.01758,0.3379 l -8.85937,5.5957 -8.82422,-5.5957 c -0.13576,-0.1126 -0.30613,-0.1873 -0.50977,-0.2246 -0.20364,-0.037 -0.37206,-0.057 -0.50781,-0.057 -0.40728,0 -0.76916,0.1215 -1.08594,0.3653 -0.29414,0.2249 -0.4414,0.5254 -0.4414,0.9004 0,0.3561 0.21462,0.6567 0.64453,0.9004 l 8.28125,5.2285 -8.28125,5.3144 c -0.3394,0.225 -0.50977,0.4872 -0.50977,0.7871 0,0.3375 0.13668,0.6571 0.4082,0.9571 0.29416,0.2811 0.63294,0.4218 1.01758,0.4218 0.31678,0 0.58819,-0.094 0.81446,-0.2812 l 8.99414,-5.6231 9.0625,5.6231 c 0.29414,0.2062 0.56556,0.3086 0.81445,0.3086 0.38465,0 0.71285,-0.1407 0.98437,-0.4219 0.29414,-0.2999 0.44141,-0.6282 0.44141,-0.9844 0,-0.2999 -0.17037,-0.5621 -0.50976,-0.7871 l -8.31446,-5.3144 8.31446,-5.2285 c 0.22626,-0.15 0.38408,-0.3012 0.47461,-0.4512 0.0905,-0.1499 0.14732,-0.2993 0.16992,-0.4492 0,-0.3375 -0.14726,-0.638 -0.44141,-0.9004 -0.29414,-0.2812 -0.66661,-0.4219 -1.11914,-0.4219 z m -121.58008,0.1406 c -5.65664,0 -8.48633,1.3323 -8.48633,3.9942 l 0,9.5879 c 0,0.7872 0.53226,1.1796 1.59571,1.1796 1.06345,0 1.5957,-0.3924 1.5957,-1.1796 l 0,-9.5879 c 0,-1.1998 1.47066,-1.8008 4.41211,-1.8008 l 8.04297,0 c 2.91882,0 4.3789,0.601 4.3789,1.8008 l 0,9.5879 c 0,0.7872 0.54283,1.1796 1.62891,1.1796 1.08607,0 1.62891,-0.3924 1.62891,-1.1796 l 0,-9.5879 c 0,-2.6619 -2.86142,-3.9942 -8.58594,-3.9942 l -6.21094,0 z m 27.50781,0 c -5.72452,0 -8.58789,1.5094 -8.58789,4.5274 l 0,5.6523 c 0,2.9618 2.82969,4.4434 8.48633,4.4434 l 6.44727,0 c 5.5435,0 8.3164,-1.4816 8.3164,-4.4434 l 0,-5.6797 c 0,-2.9992 -2.7729,-4.5 -8.3164,-4.5 l -6.34571,0 z m 55.42383,0 c -5.90554,0 -8.85937,1.4903 -8.85937,4.4707 l 0,5.625 c 0,3.018 2.98752,4.5274 8.96094,4.5274 l 2.68164,0 c 0.90506,0 1.35742,-0.3752 1.35742,-1.125 0,-0.7311 -0.45236,-1.0977 -1.35742,-1.0977 l -3.5293,0 c -3.28085,0 -4.92188,-0.6565 -4.92188,-1.9687 l 0,-1.1211 -0.002,0 0,-3.75 0.002,0 0,-1.2578 c 0,-1.406 1.64103,-2.1094 4.92188,-2.1094 l 8.61914,0 c 2.4663,0 3.69922,0.6565 3.69922,1.9687 l 0,2.1661 -14.58008,0 0,2.2773 16.24414,0 c 0.97294,0 1.45898,-0.4029 1.45898,-1.209 l 0,-3.4883 c 0,-2.6056 -2.48895,-3.9082 -7.46679,-3.9082 l -7.22852,0 z m 51.16797,0 c -5.72452,0 -8.58594,1.5094 -8.58594,4.5274 l 0,5.6523 c 0,2.9618 2.82774,4.4434 8.48438,4.4434 l 6.44922,0 c 5.5435,0 8.31445,-1.4816 8.31445,-4.4434 l 0,-5.6797 c 0,-2.9992 -2.77095,-4.5 -8.31445,-4.5 l -6.34766,0 z m -107.0664,2.1934 7.33007,0 c 3.03196,0 4.54883,0.7034 4.54883,2.1094 l 0,5.8769 c 0,1.4809 -1.51687,2.2207 -4.54883,2.2207 l -7.33007,0 c -3.28086,0 -4.92188,-0.7398 -4.92188,-2.2207 l 0,-5.6523 c 0,-1.5559 1.64102,-2.334 4.92188,-2.334 z m 106.59179,0 7.33008,0 c 3.03195,0 4.54883,0.7034 4.54883,2.1094 l 0,5.8769 c 0,1.4809 -1.51688,2.2207 -4.54883,2.2207 l -7.33008,0 c -3.28084,0 -4.92187,-0.7398 -4.92187,-2.2207 l 0,-5.6523 c 0,-1.5559 1.64103,-2.334 4.92187,-2.334 z"
               id="rect6149-7-9-9-5-47-0-3-5-4" />
            <g
               transform="matrix(-1.1377169,0,0,0.94256103,374.90216,18.326267)"
               style="font-style:normal;font-weight:normal;font-size:24.7136898px;line-height:125%;font-family:sans-serif;letter-spacing:0px;word-spacing:0px;fill:#ffffff;fill-opacity:1;stroke:#333333;stroke-width:0.47422796;stroke-linecap:butt;stroke-linejoin:miter;stroke-miterlimit:4;stroke-dasharray:none;stroke-opacity:1"
               id="text5135-87-1-2-4-5-1-4-6-7-4-0-1-5-8-3-6"
               mask="none"
               clip-path="url(#clipPath5402-8-5-4-7-9-0-1-0-5-4-9)">
              <path
                 d="m 0.66479158,1498.2515 q 0,1.2975 -1.48282132,1.2975 -1.48282136,0 -1.48282136,-1.2975 l 0,-10.5342 q 0,-1.9771 -3.9850823,-1.9771 l -7.3214306,0 q -4.015974,0 -4.015974,1.9771 l 0,10.5342 q 0,1.2975 -1.451929,1.2975 -1.451929,0 -1.451929,-1.2975 l 0,-10.5342 q 0,-4.3867 7.723027,-4.3867 l 5.6532565,0 q 7.81570408,0 7.81570408,4.3867 l 0,10.5342 z"
                 style="font-style:normal;font-variant:normal;font-weight:normal;font-stretch:normal;font-size:30.89211082px;font-family:'Neuropol X';-inkscape-font-specification:'Neuropol X';fill:#ffffff;fill-opacity:1;stroke:#333333;stroke-width:0.47422796;stroke-miterlimit:4;stroke-dasharray:none"
                 id="path5341-1-74-47-1-1-1-3-1-2-8-3-1"
                 inkscape:connector-curvature="0" />
              <path
                 d="m 22.613636,1488.0571 q 0,-2.3169 -4.139542,-2.3169 l -6.672696,0 q -4.4793564,0 -4.4793564,2.5641 l 0,6.2093 q 0,2.4405 4.4793564,2.4405 l 6.672696,0 q 4.139542,0 4.139542,-2.4405 l 0,-6.4565 z m 2.965643,6.4565 q 0,4.8809 -7.568567,4.8809 l -5.869501,0 q -7.7230278,0 -7.7230278,-4.8809 l 0,-6.2093 q 0,-4.9737 7.8157038,-4.9737 l 5.776825,0 q 7.568567,0 7.568567,4.9428 l 0,6.2402 z"
                 style="font-style:normal;font-variant:normal;font-weight:normal;font-stretch:normal;font-size:30.89211082px;font-family:'Neuropol X';-inkscape-font-specification:'Neuropol X';fill:#ffffff;fill-opacity:1;stroke:#333333;stroke-width:0.47422796;stroke-miterlimit:4;stroke-dasharray:none"
                 id="path5343-8-7-8-4-7-6-3-1-1-7-1-7"
                 inkscape:connector-curvature="0" />
              <path
                 d="m 47.998745,1485.7711 -11.399189,0 q -4.479356,0 -4.479356,2.8421 l 0,5.7459 q 0,2.595 4.294004,2.595 l 6.73448,0 q 4.850061,0 4.850061,-2.595 l 0,-8.588 z m 2.872967,8.9278 q 0,4.6956 -8.18641,4.6956 l -5.467903,0 q -8.001057,0 -8.001057,-4.4175 l 0,-6.7345 q 0,-4.9119 8.001057,-4.9119 l 10.781346,0 0,-3.7997 q 0,-1.2975 1.390145,-1.2975 1.482822,0 1.482822,1.2975 l 0,15.168 z"
                 style="font-style:normal;font-variant:normal;font-weight:normal;font-stretch:normal;font-size:30.89211082px;font-family:'Neuropol X';-inkscape-font-specification:'Neuropol X';fill:#ffffff;fill-opacity:1;stroke:#333333;stroke-width:0.47422796;stroke-miterlimit:4;stroke-dasharray:none"
                 id="path5345-2-9-8-0-56-5-2-5-4-5-7-1"
                 inkscape:connector-curvature="0" />
              <path
                 d="m 57.521724,1490.2814 15.693192,0 0,-2.3787 q 0,-2.1625 -3.36724,-2.1625 l -7.846596,0 q -4.479356,0 -4.479356,2.3169 l 0,2.2243 z m 18.535266,1.1739 q 0,1.3283 -1.32836,1.3283 l -17.206906,0 0,2.008 q 0,2.1625 4.479356,2.1625 l 3.212779,0 q 1.235685,0 1.235685,1.2047 0,1.2357 -1.235685,1.2357 l -2.440476,0 q -8.155518,0 -8.155518,-4.9736 l 0,-6.1784 q 0,-4.9119 8.062841,-4.9119 l 6.58002,0 q 6.796264,0 6.796264,4.294 l 0,3.8307 z"
                 style="font-style:normal;font-variant:normal;font-weight:normal;font-stretch:normal;font-size:30.89211082px;font-family:'Neuropol X';-inkscape-font-specification:'Neuropol X';fill:#ffffff;fill-opacity:1;stroke:#333333;stroke-width:0.47422796;stroke-miterlimit:4;stroke-dasharray:none"
                 id="path5347-0-0-4-6-4-7-8-7-7-8-7-7"
                 inkscape:connector-curvature="0" />
              <path
                 d="m 88.869008,1489.6944 8.062841,-6.1475 q 0.401597,-0.3707 0.926763,-0.3707 0.617843,0 1.01944,0.4634 0.401597,0.4324 0.401597,0.9885 -0.03089,0.2471 -0.15446,0.4943 -0.123569,0.2471 -0.43249,0.4942 l -7.568567,5.746 7.568567,5.8386 q 0.463382,0.3707 0.463382,0.865 0,0.5869 -0.401597,1.0812 -0.370706,0.4634 -0.895872,0.4634 -0.339813,0 -0.74141,-0.3398 l -8.248194,-6.1785 -8.186409,6.1785 q -0.308921,0.3089 -0.741411,0.3089 -0.525166,0 -0.926763,-0.4634 -0.370706,-0.4943 -0.370706,-1.0503 0,-0.4943 0.463382,-0.865 l 7.537675,-5.8386 -7.537675,-5.746 q -0.58695,-0.4015 -0.58695,-0.9885 0,-0.6178 0.401597,-0.9885 0.43249,-0.4016 0.988548,-0.4016 0.185353,0 0.463382,0.062 0.278029,0.062 0.463381,0.2472 l 8.031949,6.1475 z"
                 style="font-style:normal;font-variant:normal;font-weight:normal;font-stretch:normal;font-size:30.89211082px;font-family:'Neuropol X';-inkscape-font-specification:'Neuropol X';fill:#ffffff;fill-opacity:1;stroke:#333333;stroke-width:0.47422796;stroke-miterlimit:4;stroke-dasharray:none"
                 id="path5349-4-8-5-7-1-3-8-0-1-0-9-2"
                 inkscape:connector-curvature="0" />
              <path
                 d="m 119.63417,1488.0571 q 0,-2.3169 -4.13954,-2.3169 l -6.6727,0 q -4.47935,0 -4.47935,2.5641 l 0,6.2093 q 0,2.4405 4.47935,2.4405 l 6.6727,0 q 4.13954,0 4.13954,-2.4405 l 0,-6.4565 z m 2.96565,6.4565 q 0,4.8809 -7.56857,4.8809 l -5.8695,0 q -7.72303,0 -7.72303,-4.8809 l 0,-6.2093 q 0,-4.9737 7.8157,-4.9737 l 5.77683,0 q 7.56857,0 7.56857,4.9428 l 0,6.2402 z"
                 style="font-style:normal;font-variant:normal;font-weight:normal;font-stretch:normal;font-size:30.89211082px;font-family:'Neuropol X';-inkscape-font-specification:'Neuropol X';fill:#ffffff;fill-opacity:1;stroke:#333333;stroke-width:0.47422796;stroke-miterlimit:4;stroke-dasharray:none"
                 id="path5351-2-5-7-0-1-5-2-0-1-0-3-8"
                 inkscape:connector-curvature="0" />
            </g>
            <g
               transform="matrix(1.1031543,0,0,0.91392699,212.51048,54.87483)"
               style="font-style:normal;font-weight:normal;font-size:24.7136898px;line-height:125%;font-family:sans-serif;letter-spacing:0px;word-spacing:0px;fill:#ffffff;fill-opacity:1;stroke:#333333;stroke-width:0.47422796;stroke-linecap:butt;stroke-linejoin:miter;stroke-miterlimit:4;stroke-dasharray:none;stroke-opacity:1"
               id="text5135-87-1-2-4-5-5-0-3-8-6-2-4-97-1-6-7-1"
               mask="none"
               clip-path="url(#clipPath5402-6-5-5-0-5-5-6-5-0-8-4-1)">
              <path
                 d="m 0.66479158,1498.2515 q 0,1.2975 -1.48282132,1.2975 -1.48282136,0 -1.48282136,-1.2975 l 0,-10.5342 q 0,-1.9771 -3.9850823,-1.9771 l -7.3214306,0 q -4.015974,0 -4.015974,1.9771 l 0,10.5342 q 0,1.2975 -1.451929,1.2975 -1.451929,0 -1.451929,-1.2975 l 0,-10.5342 q 0,-4.3867 7.723027,-4.3867 l 5.6532565,0 q 7.81570408,0 7.81570408,4.3867 l 0,10.5342 z"
                 style="font-style:normal;font-variant:normal;font-weight:normal;font-stretch:normal;font-size:30.89211082px;font-family:'Neuropol X';-inkscape-font-specification:'Neuropol X';fill:#ffffff;fill-opacity:1;stroke:#333333;stroke-width:0.47422796;stroke-miterlimit:4;stroke-dasharray:none"
                 id="path5341-1-7-6-8-4-9-3-6-8-5-4-8-1"
                 inkscape:connector-curvature="0" />
              <path
                 d="m 22.613636,1488.0571 q 0,-2.3169 -4.139542,-2.3169 l -6.672696,0 q -4.4793564,0 -4.4793564,2.5641 l 0,6.2093 q 0,2.4405 4.4793564,2.4405 l 6.672696,0 q 4.139542,0 4.139542,-2.4405 l 0,-6.4565 z m 2.965643,6.4565 q 0,4.8809 -7.568567,4.8809 l -5.869501,0 q -7.7230278,0 -7.7230278,-4.8809 l 0,-6.2093 q 0,-4.9737 7.8157038,-4.9737 l 5.776825,0 q 7.568567,0 7.568567,4.9428 l 0,6.2402 z"
                 style="font-style:normal;font-variant:normal;font-weight:normal;font-stretch:normal;font-size:30.89211082px;font-family:'Neuropol X';-inkscape-font-specification:'Neuropol X';fill:#ffffff;fill-opacity:1;stroke:#333333;stroke-width:0.47422796;stroke-miterlimit:4;stroke-dasharray:none"
                 id="path5343-8-4-7-4-7-8-5-8-4-0-1-4-4"
                 inkscape:connector-curvature="0" />
              <path
                 d="m 47.998745,1485.7711 -11.399189,0 q -4.479356,0 -4.479356,2.8421 l 0,5.7459 q 0,2.595 4.294004,2.595 l 6.73448,0 q 4.850061,0 4.850061,-2.595 l 0,-8.588 z m 2.872967,8.9278 q 0,4.6956 -8.18641,4.6956 l -5.467903,0 q -8.001057,0 -8.001057,-4.4175 l 0,-6.7345 q 0,-4.9119 8.001057,-4.9119 l 10.781346,0 0,-3.7997 q 0,-1.2975 1.390145,-1.2975 1.482822,0 1.482822,1.2975 l 0,15.168 z"
                 style="font-style:normal;font-variant:normal;font-weight:normal;font-stretch:normal;font-size:30.89211082px;font-family:'Neuropol X';-inkscape-font-specification:'Neuropol X';fill:#ffffff;fill-opacity:1;stroke:#333333;stroke-width:0.47422796;stroke-miterlimit:4;stroke-dasharray:none"
                 id="path5345-2-8-8-6-0-6-6-8-5-2-4-7-4"
                 inkscape:connector-curvature="0" />
              <path
                 d="m 57.521724,1490.2814 15.693192,0 0,-2.3787 q 0,-2.1625 -3.36724,-2.1625 l -7.846596,0 q -4.479356,0 -4.479356,2.3169 l 0,2.2243 z m 18.535266,1.1739 q 0,1.3283 -1.32836,1.3283 l -17.206906,0 0,2.008 q 0,2.1625 4.479356,2.1625 l 3.212779,0 q 1.235685,0 1.235685,1.2047 0,1.2357 -1.235685,1.2357 l -2.440476,0 q -8.155518,0 -8.155518,-4.9736 l 0,-6.1784 q 0,-4.9119 8.062841,-4.9119 l 6.58002,0 q 6.796264,0 6.796264,4.294 l 0,3.8307 z"
                 style="font-style:normal;font-variant:normal;font-weight:normal;font-stretch:normal;font-size:30.89211082px;font-family:'Neuropol X';-inkscape-font-specification:'Neuropol X';fill:#ffffff;fill-opacity:1;stroke:#333333;stroke-width:0.47422796;stroke-miterlimit:4;stroke-dasharray:none"
                 id="path5347-0-7-9-4-8-7-6-6-9-1-4-4-9"
                 inkscape:connector-curvature="0" />
              <path
                 d="m 88.869008,1489.6944 8.062841,-6.1475 q 0.401597,-0.3707 0.926763,-0.3707 0.617843,0 1.01944,0.4634 0.401597,0.4324 0.401597,0.9885 -0.03089,0.2471 -0.15446,0.4943 -0.123569,0.2471 -0.43249,0.4942 l -7.568567,5.746 7.568567,5.8386 q 0.463382,0.3707 0.463382,0.865 0,0.5869 -0.401597,1.0812 -0.370706,0.4634 -0.895872,0.4634 -0.339813,0 -0.74141,-0.3398 l -8.248194,-6.1785 -8.186409,6.1785 q -0.308921,0.3089 -0.741411,0.3089 -0.525166,0 -0.926763,-0.4634 -0.370706,-0.4943 -0.370706,-1.0503 0,-0.4943 0.463382,-0.865 l 7.537675,-5.8386 -7.537675,-5.746 q -0.58695,-0.4015 -0.58695,-0.9885 0,-0.6178 0.401597,-0.9885 0.43249,-0.4016 0.988548,-0.4016 0.185353,0 0.463382,0.062 0.278029,0.062 0.463381,0.2472 l 8.031949,6.1475 z"
                 style="font-style:normal;font-variant:normal;font-weight:normal;font-stretch:normal;font-size:30.89211082px;font-family:'Neuropol X';-inkscape-font-specification:'Neuropol X';fill:#ffffff;fill-opacity:1;stroke:#333333;stroke-width:0.47422796;stroke-miterlimit:4;stroke-dasharray:none"
                 id="path5349-4-9-2-4-8-3-7-3-9-5-1-4-1"
                 inkscape:connector-curvature="0" />
              <path
                 d="m 119.63417,1488.0571 q 0,-2.3169 -4.13954,-2.3169 l -6.6727,0 q -4.47935,0 -4.47935,2.5641 l 0,6.2093 q 0,2.4405 4.47935,2.4405 l 6.6727,0 q 4.13954,0 4.13954,-2.4405 l 0,-6.4565 z m 2.96565,6.4565 q 0,4.8809 -7.56857,4.8809 l -5.8695,0 q -7.72303,0 -7.72303,-4.8809 l 0,-6.2093 q 0,-4.9737 7.8157,-4.9737 l 5.77683,0 q 7.56857,0 7.56857,4.9428 l 0,6.2402 z"
                 style="font-style:normal;font-variant:normal;font-weight:normal;font-stretch:normal;font-size:30.89211082px;font-family:'Neuropol X';-inkscape-font-specification:'Neuropol X';fill:#ffffff;fill-opacity:1;stroke:#333333;stroke-width:0.47422796;stroke-miterlimit:4;stroke-dasharray:none"
                 id="path5351-2-7-4-44-6-2-9-54-3-3-4-6-8"
                 inkscape:connector-curvature="0" />
            </g>
          </g>
          <g
             id="g5557">
            <path
               transform="matrix(-0.19613023,-0.63441475,0.63441475,-0.19613023,730.26372,1260.5656)"
               style="fill:#50b948;fill-opacity:1;stroke:none"
               d="m 430.31414,263.64246 c -0.47624,0.28142 -5.04959,0.32765 -5.53142,0.0559 -0.48184,-0.27172 -2.80856,-4.20925 -2.81415,-4.76239 -0.006,-0.55315 2.24105,-4.53691 2.71729,-4.81832 0.47624,-0.28141 5.04959,-0.32765 5.53142,-0.0559 0.48184,0.27173 2.80856,4.20925 2.81415,4.76239 0.006,0.55315 -2.24105,4.53691 -2.71729,4.81832 z"
               id="path5074-1-8-1-9-1-1-7-4-2"
               inkscape:connector-curvature="0" />
            <path
               transform="matrix(-0.13820925,-0.44706,0.44706,-0.13820925,759.13663,1159.7946)"
               style="fill:#50b948;fill-opacity:1;stroke:none"
               d="m 430.31414,263.64246 c -0.47624,0.28142 -5.04959,0.32765 -5.53142,0.0559 -0.48184,-0.27172 -2.80856,-4.20925 -2.81415,-4.76239 -0.006,-0.55315 2.24105,-4.53691 2.71729,-4.81832 0.47624,-0.28141 5.04959,-0.32765 5.53142,-0.0559 0.48184,0.27173 2.80856,4.20925 2.81415,4.76239 0.006,0.55315 -2.24105,4.53691 -2.71729,4.81832 z"
               id="path5074-8-5-7-7-8-9-5-0-1-8"
               inkscape:connector-curvature="0" />
            <path
               transform="matrix(-0.09798634,-0.31695251,0.31695251,-0.09798634,773.30554,1096.2149)"
               style="fill:#50b948;fill-opacity:1;stroke:none"
               d="m 430.31414,263.64246 c -0.71436,0.42212 -4.80868,0.46352 -5.53142,0.0559 -0.72275,-0.40759 -2.80576,-3.93268 -2.81415,-4.76239 -0.008,-0.82972 2.00293,-4.3962 2.71729,-4.81832 0.71436,-0.42212 4.80868,-0.46351 5.53142,-0.0559 0.72275,0.40759 2.80576,3.93268 2.81415,4.76239 0.008,0.82972 -2.00293,4.3962 -2.71729,4.81832 z"
               id="path5074-8-8-8-2-7-3-9-9-1-0-1"
               inkscape:connector-curvature="0" />
            <path
               transform="matrix(0.95538632,-0.29535906,0.29535906,0.95538632,0,0)"
               style="fill:#1a1a1a;fill-opacity:1;stroke:none"
               d="m 503.88736,1135.8345 a 1.6601,1.6601 0 0 1 -1.6601,1.6601 1.6601,1.6601 0 0 1 -1.6601,-1.6601 1.6601,1.6601 0 0 1 1.6601,-1.6601 1.6601,1.6601 0 0 1 1.6601,1.6601 z"
               id="path5129-0-6-6-0-1-0-1-6-0-6"
               inkscape:connector-curvature="0" />
            <path
               transform="matrix(0.95538632,-0.29535906,0.29535906,0.95538632,0,0)"
               style="fill:#1a1a1a;fill-opacity:1;stroke:none"
               d="m 501.54319,1131.8994 a 1.6601,1.6601 0 0 1 -1.6601,1.6601 1.6601,1.6601 0 0 1 -1.6601,-1.6601 1.6601,1.6601 0 0 1 1.6601,-1.6601 1.6601,1.6601 0 0 1 1.6601,1.6601 z"
               id="path5129-0-3-6-1-8-7-4-5-1-2-6"
               inkscape:connector-curvature="0" />
            <path
               transform="matrix(0.19613023,0.63441475,-0.63441475,0.19613023,906.83384,609.74646)"
               style="fill:#50b948;fill-opacity:1;stroke:none"
               d="m 430.31414,263.64246 c -0.47624,0.28142 -5.04959,0.32765 -5.53142,0.0559 -0.48184,-0.27172 -2.80856,-4.20925 -2.81415,-4.76239 -0.006,-0.55315 2.24105,-4.53691 2.71729,-4.81832 0.47624,-0.28141 5.04959,-0.32765 5.53142,-0.0559 0.48184,0.27173 2.80856,4.20925 2.81415,4.76239 0.006,0.55315 -2.24105,4.53691 -2.71729,4.81832 z"
               id="path5074-1-8-8-9-7-0-3-2-1-7"
               inkscape:connector-curvature="0" />
            <path
               transform="matrix(0.13820925,0.44706,-0.44706,0.13820925,877.96084,710.51752)"
               style="fill:#50b948;fill-opacity:1;stroke:none"
               d="m 430.31414,263.64246 c -0.47624,0.28142 -5.04959,0.32765 -5.53142,0.0559 -0.48184,-0.27172 -2.80856,-4.20925 -2.81415,-4.76239 -0.006,-0.55315 2.24105,-4.53691 2.71729,-4.81832 0.47624,-0.28141 5.04959,-0.32765 5.53142,-0.0559 0.48184,0.27173 2.80856,4.20925 2.81415,4.76239 0.006,0.55315 -2.24105,4.53691 -2.71729,4.81832 z"
               id="path5074-8-5-7-3-3-2-4-7-1-9-4"
               inkscape:connector-curvature="0" />
            <path
               transform="matrix(0.09798634,0.31695251,-0.31695251,0.09798634,863.79197,774.09714)"
               style="fill:#50b948;fill-opacity:1;stroke:none"
               d="m 430.31414,263.64246 c -0.71436,0.42212 -4.80868,0.46352 -5.53142,0.0559 -0.72275,-0.40759 -2.80576,-3.93268 -2.81415,-4.76239 -0.008,-0.82972 2.00293,-4.3962 2.71729,-4.81832 0.71436,-0.42212 4.80868,-0.46351 5.53142,-0.0559 0.72275,0.40759 2.80576,3.93268 2.81415,4.76239 0.008,0.82972 -2.00293,4.3962 -2.71729,4.81832 z"
               id="path5074-8-8-8-2-0-6-7-3-4-6-5-4"
               inkscape:connector-curvature="0" />
            <path
               transform="matrix(-0.95538632,0.29535906,-0.29535906,-0.95538632,0,0)"
               style="fill:#1a1a1a;fill-opacity:1;stroke:none"
               d="m -507.75955,-1134.5673 a 1.6601,1.6601 0 0 1 -1.6601,1.6601 1.6601,1.6601 0 0 1 -1.6601,-1.6601 1.6601,1.6601 0 0 1 1.6601,-1.6601 1.6601,1.6601 0 0 1 1.6601,1.6601 z"
               id="path5129-0-6-6-4-0-8-2-9-9-5-6"
               inkscape:connector-curvature="0" />
            <path
               transform="matrix(-0.95538632,0.29535906,-0.29535906,-0.95538632,0,0)"
               style="fill:#1a1a1a;fill-opacity:1;stroke:none"
               d="m -510.11166,-1138.4802 a 1.6601,1.6601 0 0 1 -1.6601,1.6601 1.6601,1.6601 0 0 1 -1.6601,-1.6601 1.6601,1.6601 0 0 1 1.6601,-1.6601 1.6601,1.6601 0 0 1 1.6601,1.6601 z"
               id="path5129-0-3-6-1-7-4-8-7-6-9-7-2"
               inkscape:connector-curvature="0" />
            <path
               transform="matrix(0.23711339,0.25696231,-0.24707876,0.25181772,781.12347,760.1933)"
               style="fill:#50b948;fill-opacity:1;stroke:none"
               d="m 430.31414,263.64246 c -0.47624,0.28142 -5.04959,0.32765 -5.53142,0.0559 -0.48184,-0.27172 -2.80856,-4.20925 -2.81415,-4.76239 -0.006,-0.55315 2.24105,-4.53691 2.71729,-4.81832 0.47624,-0.28141 5.04959,-0.32765 5.53142,-0.0559 0.48184,0.27173 2.80856,4.20925 2.81415,4.76239 0.006,0.55315 -2.24105,4.53691 -2.71729,4.81832 z"
               id="path5074-8-5-7-3-9-5-2-3-1-3-0-3"
               inkscape:connector-curvature="0" />
            <path
               transform="matrix(0.96687025,-0.25526831,0.25526831,0.96687025,0,0)"
               style="fill:#1a1a1a;fill-opacity:1;stroke:none"
               d="m 549.67669,1112.7719 1.37306,0 c 0.7849,0 1.41679,0.6318 1.41679,1.4167 l 0,1.3731 c 0,0.7849 -0.63189,1.4168 -1.41679,1.4168 l -1.37306,0 c -0.78491,0 -1.4168,-0.6319 -1.4168,-1.4168 l 0,-1.3731 c 0,-0.7849 0.63189,-1.4167 1.4168,-1.4167 z"
               id="rect3400-4-9-04-8-7-0-0-6-7"
               inkscape:connector-curvature="0" />
            <path
               transform="matrix(0.9638098,-0.26659081,0.26659081,0.9638098,0,0)"
               style="fill:#1a1a1a;fill-opacity:1;stroke:none"
               d="m 541.29894,1115.7594 1.37306,0 c 0.78491,0 1.4168,0.6319 1.4168,1.4168 l 0,1.3731 c 0,0.7849 -0.63189,1.4168 -1.4168,1.4168 l -1.37306,0 c -0.78491,0 -1.4168,-0.6319 -1.4168,-1.4168 l 0,-1.3731 c 0,-0.7849 0.63189,-1.4168 1.4168,-1.4168 z"
               id="rect3400-4-9-0-4-5-5-5-1-4-6"
               inkscape:connector-curvature="0" />
            <path
               transform="matrix(0.99989085,-0.01477473,0.01477473,0.99989085,0,0)"
               style="fill:#1a1a1a;fill-opacity:1;stroke:none"
               d="m 802.17599,946.83997 0.2131,0 c 1.04654,0 1.88906,0.446 1.88906,1 l 0,1.42856 c 0,0.554 -0.84252,1 -1.88906,1 l -0.2131,0 c -1.04654,0 -1.88906,-0.446 -1.88906,-1 l 0,-1.42856 c 0,-0.554 0.84252,-1 1.88906,-1 z"
               id="rect3400-2-8-8-5-9-3-9-1"
               inkscape:connector-curvature="0" />
            <path
               transform="matrix(0.99989085,-0.01477473,0.01477473,0.99989085,0,0)"
               style="fill:#1a1a1a;fill-opacity:1;stroke:none"
               d="m 806.89004,943.92535 0.2131,0 c 1.04654,0 1.88906,0.446 1.88906,1 l 0,1.42857 c 0,0.554 -0.84252,1 -1.88906,1 l -0.2131,0 c -1.04654,0 -1.88906,-0.446 -1.88906,-1 l 0,-1.42857 c 0,-0.554 0.84252,-1 1.88906,-1 z"
               id="rect3400-2-1-5-6-0-2-5-8-5"
               inkscape:connector-curvature="0" />
            <path
               transform="matrix(0.31700707,-0.14533127,0.14533127,0.31700707,647.65242,913.00355)"
               style="opacity:0.06000001;fill:#ffffff;fill-opacity:1;stroke:none"
               d="m 430.31414,263.64246 c -0.47624,0.28142 -5.04959,0.32765 -5.53142,0.0559 -0.48184,-0.27172 -2.80856,-4.20925 -2.81415,-4.76239 -0.006,-0.55315 2.24105,-4.53691 2.71729,-4.81832 0.47624,-0.28141 5.04959,-0.32765 5.53142,-0.0559 0.48184,0.27173 2.80856,4.20925 2.81415,4.76239 0.006,0.55315 -2.24105,4.53691 -2.71729,4.81832 z"
               id="path5074-8-5-4-7-52-4-7-7-2-6"
               inkscape:connector-curvature="0" />
            <path
               transform="matrix(0.03442363,-0.21972894,0.21972894,0.03442363,753.76993,1021.5402)"
               style="opacity:0.06000001;fill:#ffffff;fill-opacity:1;stroke:none"
               d="m 430.31414,263.64246 c -0.47624,0.28142 -5.04959,0.32765 -5.53142,0.0559 -0.48184,-0.27172 -2.80856,-4.20925 -2.81415,-4.76239 -0.006,-0.55315 2.24105,-4.53691 2.71729,-4.81832 0.47624,-0.28141 5.04959,-0.32765 5.53142,-0.0559 0.48184,0.27173 2.80856,4.20925 2.81415,4.76239 0.006,0.55315 -2.24105,4.53691 -2.71729,4.81832 z"
               id="path5074-8-5-4-7-5-7-5-7-7-5-4"
               inkscape:connector-curvature="0" />
            <path
               transform="matrix(0.31700707,-0.14533127,0.14533127,0.31700707,643.05936,917.21839)"
               style="opacity:0.06000001;fill:#ffffff;fill-opacity:1;stroke:none"
               d="m 430.31414,263.64246 c -0.47624,0.28142 -5.04959,0.32765 -5.53142,0.0559 -0.48184,-0.27172 -2.80856,-4.20925 -2.81415,-4.76239 -0.006,-0.55315 2.24105,-4.53691 2.71729,-4.81832 0.47624,-0.28141 5.04959,-0.32765 5.53142,-0.0559 0.48184,0.27173 2.80856,4.20925 2.81415,4.76239 0.006,0.55315 -2.24105,4.53691 -2.71729,4.81832 z"
               id="path5074-8-5-4-7-0-8-3-8-8-7-1"
               inkscape:connector-curvature="0" />
            <path
               transform="matrix(0.03442363,-0.21972894,0.21972894,0.03442363,740.1951,1018.7649)"
               style="opacity:0.06000001;fill:#ffffff;fill-opacity:1;stroke:none"
               d="m 430.31414,263.64246 c -0.47624,0.28142 -5.04959,0.32765 -5.53142,0.0559 -0.48184,-0.27172 -2.80856,-4.20925 -2.81415,-4.76239 -0.006,-0.55315 2.24105,-4.53691 2.71729,-4.81832 0.47624,-0.28141 5.04959,-0.32765 5.53142,-0.0559 0.48184,0.27173 2.80856,4.20925 2.81415,4.76239 0.006,0.55315 -2.24105,4.53691 -2.71729,4.81832 z"
               id="path5074-8-5-4-7-5-3-6-6-9-0-4-7"
               inkscape:connector-curvature="0" />
          </g>
        </g>
      </g>
    </g>
  </g>
</svg>
